<?xml version="1.0" encoding="utf-8"?>
<svg id="master-artboard" viewBox="0 0 841.9 595.3" version="1.1" xmlns="http://www.w3.org/2000/svg" x="0px" y="0px" style="enable-background:new 0 0 841.9 595.3;" width="841.9000244140625px" height="595.2999877929688px">

<path d="M 0 0 H 841.900024 V 595.299988 H 0 V 0 Z" class="st3" style="fill: rgb(39, 170, 225);" transform="matrix(1, 0, 0, 1, 0, 0)"/><g transform="matrix(1, 0, 0, 1, 0, 0)">
			<path class="st5" d="M640.5,355.5c-6.3-1.1-6.7,13-6.7,13s-9.3-7.2-9.6-8.1c-0.3-1,0.5-12.4-4.1-12.7c-3.3-0.2-3.4,8.2-3.2,13.1&#10;&#9;&#9;&#9;&#9;c0.1,2.3,1.1,4.4,2.8,5.8l10,8.7l-12.1,3.9c0,0-3.3-10.1-6.9-10.6s-4.1,5.9-0.1,15.8l-9.2-4.5l-3.5-21.7c0,0,11.3-11.5,10.1-16.4&#10;&#9;&#9;&#9;&#9;c-1.2-4.9-4-15.5-7.9-13.6c-3.9,2,0.3,9.7,0,11.9c-0.3,2.2-8.1,10.7-8.1,10.7c-1.1-1.4-9.7-12.6-12.9-8.4&#10;&#9;&#9;&#9;&#9;c-3.2,4.2,9.2,14.5,10.5,18.5c1.3,4,1.2,15.6,1.2,15.6s-10.1-4.1-12.7-6.8c-2.6-2.7-11.2-18.9-14.9-13.7&#10;&#9;&#9;&#9;&#9;c-3.4,4.6,6.6,18.3,8.5,20.9c1.9,2.5,33.5,14.7,33.5,14.7s1.1,13.6,1.9,20.5c-2.3,0.3-6.4,0.7-9.9,0.9l0.9-5.4&#10;&#9;&#9;&#9;&#9;c0.4-2.5,0.1-5.1-0.8-7.5c-2-4.9-5.6-12.7-8.7-11.3c-4.5,2,1.7,12.8,1.9,13.8c0.1,0.5-0.3,4.4-0.7,7.7c-2.9-4-10.3-12-13.6-8.5&#10;&#9;&#9;&#9;&#9;c-4,4.2,11.2,17.6,12.7,18.1c1.3,0.4,16.5,1.1,21.6,1.3c3.4,7.3,8.9,19.3,8.9,19.3l9.4-3.5c0,0-11.5-22.5-11.7-24.2&#10;&#9;&#9;&#9;&#9;c-0.2-1.7-1-22.5-1-22.5s21.2-9.2,22.6-10.4C640,378.8,646.8,356.6,640.5,355.5z" style="fill: rgb(239, 91, 161);"/>
			<path class="st6" d="M601.5,380l-3.5-21.7c0,0,11.3-11.5,10.1-16.4c-1.1-4.6-3.6-14.3-7.2-13.8c1.4,5.5,3.6,14.1,3.5,15.3&#10;&#9;&#9;&#9;&#9;c-0.1,1.8-10,14.5-10,14.5L601.5,380z" style="fill: rgb(236, 0, 140);"/>
			<path class="st6" d="M617,412.9c-0.2-1.7-1-22.5-1-22.5s21.2-9.2,22.6-10.4c1.4-1.2,8.2-23.4,1.9-24.5c0,0-3.7,19.2-4.9,22.9&#10;&#9;&#9;&#9;&#9;l-24.1,10.3c0,0,2.2,23.8,2.6,25c0.4,1.2,11.5,24.4,11.5,24.4l3-1.1C628.7,437.1,617.2,414.6,617,412.9z" style="fill: rgb(236, 0, 140);"/>
			<path class="st6" d="M621.2,348.1l0.9,13.4l9.9,10l1.9-2.9c0,0-9.3-7.2-9.6-8.1C624,359.6,624.6,349.9,621.2,348.1z" style="fill: rgb(236, 0, 140);"/>
			<path class="st6" d="M610.8,368.6l3.7,11.5l3.2-0.8C617.7,379.3,614.8,369.1,610.8,368.6z" style="fill: rgb(236, 0, 140);"/>
			<path class="st6" d="M565.4,355c3.7,6.2,10.7,17.9,11.6,18.5c1.3,0.8,13.9,3,13.9,3s-10.1-4.1-12.7-6.8&#10;&#9;&#9;&#9;&#9;C576,367.5,569.6,355.6,565.4,355z" style="fill: rgb(236, 0, 140);"/>
			<path class="st6" d="M580.7,341.5c2.7,3.4,6.1,7.8,8.8,11.2l2.5-1.9C591.1,349.7,584.5,341.1,580.7,341.5z" style="fill: rgb(236, 0, 140);"/>
			<path class="st6" d="M595.1,413.5l2-0.6l0.9-5.4c0.4-2.5,0.1-5.1-0.8-7.5c-1.6-4-4.3-9.8-6.9-11.1c-0.6-0.1-1.2-0.2-1.8-0.1&#10;&#9;&#9;&#9;&#9;c0,0,7.6,13.7,7.3,14.9C595.5,404.8,595.1,413.5,595.1,413.5z" style="fill: rgb(236, 0, 140);"/>
			<path class="st6" d="M588,413.1l1.7-2.8c-2.7-3.8-9.5-11.1-13-8.9L588,413.1z" style="fill: rgb(236, 0, 140);"/>
		</g><path class="st7" d="M689.9,364.3c-5.6-3.1-10.5,10.2-10.5,10.2s-6.5-9.8-6.5-10.8c0-1,4.5-11.6,0.2-13.3&#10;&#9;&#9;&#9;&#9;c-3-1.2-5.9,6.6-7.3,11.4c-0.6,2.2-0.4,4.5,0.8,6.4l6.7,11.4l-12.7-0.2c0,0,0.2-10.6-3.2-12.3c-3.3-1.7-5.7,4.2-5.2,14.9&#10;&#9;&#9;&#9;&#9;l-7.2-7.2l3.7-21.7c0,0,14.4-7.3,14.8-12.3c0.4-5,1.2-16-3.1-15.4c-4.3,0.6-2.8,9.3-3.8,11.3c-1,2-11.1,7.5-11.1,7.5&#10;&#9;&#9;&#9;&#9;c-0.6-1.7-5.1-15.1-9.5-12.1c-4.4,2.9,4.1,16.7,4,20.9c-0.1,4.2-3.9,15.1-3.9,15.1s-8.2-7.1-9.8-10.5c-1.6-3.4-4.5-21.4-9.7-17.8&#10;&#9;&#9;&#9;&#9;c-4.7,3.3,0.4,19.5,1.3,22.5c1,3,27,24.6,27,24.6s-3.4,13.2-4.8,20c-2.3-0.5-6.3-1.4-9.7-2.4l2.6-4.8c1.2-2.3,1.8-4.8,1.6-7.4&#10;&#9;&#9;&#9;&#9;c-0.3-5.3-1.3-13.8-4.6-13.5c-4.9,0.5-2.5,12.7-2.7,13.7c-0.1,0.5-1.7,4.1-3.1,7.1c-1.4-4.7-5.9-14.6-10.2-12.4&#10;&#9;&#9;&#9;&#9;c-5.2,2.7,4.9,20.3,6.2,21.2c1.1,0.8,15.3,6.3,20,8.2c0.9,8,2.2,21.1,2.2,21.1l10-0.2c0,0-3.6-25-3.3-26.6&#10;&#9;&#9;&#9;&#9;c0.4-1.7,6.3-21.6,6.3-21.6s23-1.9,24.7-2.6S695.5,367.4,689.9,364.3z" style="fill: rgb(242, 135, 183);" transform="matrix(1, 0, 0, 1, 0, 0)"/><path class="st5" d="M645,374.9l3.7-21.7c0,0,14.4-7.3,14.8-12.3c0.4-4.7,1.1-14.7-2.4-15.4c-0.4,5.6-1.2,14.5-1.6,15.6&#10;&#9;&#9;&#9;&#9;c-0.7,1.7-14.2,10.5-14.2,10.5L645,374.9z" style="fill: rgb(239, 91, 161);" transform="matrix(1, 0, 0, 1, 0, 0)"/><path class="st5" d="M649.2,411.1c0.4-1.7,6.3-21.6,6.3-21.6s23-1.9,24.7-2.6s15.3-19.5,9.7-22.6c0,0-9.7,17-12,20.2l-26.2,2&#10;&#9;&#9;&#9;&#9;c0,0-5.6,23.2-5.6,24.5c0,1.3,3,26.8,3,26.8l3.2-0.1C652.5,437.7,648.8,412.8,649.2,411.1z" style="fill: rgb(239, 91, 161);" transform="matrix(1, 0, 0, 1, 0, 0)"/><path class="st5" d="M674,351l-3.5,13l6.1,12.6l2.7-2.1c0,0-6.5-9.8-6.5-10.8C672.9,362.8,676.6,353.9,674,351z" style="fill: rgb(239, 91, 161);" transform="matrix(1, 0, 0, 1, 0, 0)"/><path class="st5" d="M657.5,367.2l-0.2,12l3.3,0.3C660.6,379.5,661.1,368.9,657.5,367.2z" style="fill: rgb(239, 91, 161);" transform="matrix(1, 0, 0, 1, 0, 0)"/><path class="st5" d="M618.9,339.7c1.5,7.1,4.3,20.4,5.1,21.2c1,1.1,12.2,7.3,12.2,7.3s-8.2-7.1-9.8-10.5&#10;&#9;&#9;&#9;&#9;C624.9,354.9,622.7,341.6,618.9,339.7z" style="fill: rgb(239, 91, 161);" transform="matrix(1, 0, 0, 1, 0, 0)"/><path class="st5" d="M637.7,331.8c1.4,4.1,3.2,9.3,4.7,13.5l3-1C644.9,342.9,641.5,332.6,637.7,331.8z" style="fill: rgb(239, 91, 161);" transform="matrix(1, 0, 0, 1, 0, 0)"/><path class="st5" d="M628.3,404.6l2.1,0.1l2.6-4.8c1.2-2.3,1.8-4.8,1.6-7.4c-0.2-4.3-0.9-10.6-2.9-12.8c-0.5-0.3-1.1-0.5-1.7-0.7&#10;&#9;&#9;&#9;&#9;c0,0,2.8,15.4,2.1,16.4C631.4,396.5,628.3,404.6,628.3,404.6z" style="fill: rgb(239, 91, 161);" transform="matrix(1, 0, 0, 1, 0, 0)"/><path class="st5" d="M621.6,402l2.5-2.1c-1.4-4.5-5.4-13.6-9.5-12.7L621.6,402z" style="fill: rgb(239, 91, 161);" transform="matrix(1, 0, 0, 1, 0, 0)"/><path class="st8" d="M841.9,427.3c0,0-133.8-33-336.2,29.4c-268,82.6-505.6,25-505.6,25l0,113.6h841.9V427.3z" style="fill: rgb(221, 188, 100);" transform="matrix(1, 0, 0, 1, 0, 0)"/><g transform="matrix(1, 0, 0, 1, 0, 0)">
			<path class="st9" d="M747.2,478c0,0,29.5-39.5,0-88.5s0-97,0-97s-21.5,12.9-26,50.4s15.5,52.6,16,85.6S720.6,478,720.6,478H747.2&#10;&#9;&#9;&#9;&#9;z" style="fill: rgb(0, 148, 68);"/>
			<path class="st10" d="M742.6,300c-0.7,1.2-1.5,2.5-2.3,4c-0.8,1.5-1.6,3.1-2.5,4.8c-0.8,1.8-1.7,3.6-2.5,5.7&#10;&#9;&#9;&#9;&#9;c-0.8,2-1.7,4.1-2.4,6.4c-1.6,4.5-2.9,9.6-3.8,15c-0.9,5.4-1.3,11.3-1.1,17.3c0.2,6,1,12.2,2.4,18.4c1.3,6.2,3.2,12.3,5.2,18.4&#10;&#9;&#9;&#9;&#9;c2,6.1,4.2,12.1,6.2,18c1,3,1.9,5.9,2.7,8.8c0.4,1.5,0.7,2.9,1.1,4.3c0.2,0.7,0.3,1.5,0.4,2.2l0.2,1.1l0.1,0.3l0,0.2l0.1,0.5&#10;&#9;&#9;&#9;&#9;c0.5,2.9,0.7,5.7,0.8,8.5c0,2.8,0,5.5-0.3,8.2c-0.5,5.3-1.6,10.2-3,14.7c-1.4,4.4-3.1,8.4-4.8,11.7c-1.7,3.4-3.4,6.2-4.9,8.4&#10;&#9;&#9;&#9;&#9;c-0.2,0.3-0.4,0.6-0.6,0.8h5.7c1.2-2.1,2.6-4.5,3.9-7.3c1.7-3.6,3.4-7.8,4.8-12.5c1.4-4.7,2.4-10,2.8-15.6&#10;&#9;&#9;&#9;&#9;c0.2-2.8,0.2-5.7,0.1-8.7c-0.2-2.9-0.5-6-1.1-9l-0.1-0.6l-0.1-0.3l-0.1-0.3l-0.2-1.1c-0.2-0.7-0.3-1.5-0.5-2.2&#10;&#9;&#9;&#9;&#9;c-0.4-1.5-0.8-3-1.2-4.5c-0.9-3-1.9-6-2.9-8.9c-2.1-5.9-4.5-11.9-6.6-17.8c-2.2-6-4.1-12-5.6-18c-1.5-6-2.4-12.1-2.8-18&#10;&#9;&#9;&#9;&#9;c-0.3-5.9-0.1-11.7,0.7-17.1c0.8-5.4,2-10.4,3.4-14.9c0.7-2.3,1.5-4.4,2.3-6.4c0.8-2,1.6-3.9,2.4-5.7c0.8-1.7,1.6-3.4,2.4-4.9&#10;&#9;&#9;&#9;&#9;c0.8-1.5,1.5-2.8,2.2-4.1c1.3-2.5,2.5-4.3,3.3-5.6c0.6-1.1,1-1.7,1.1-1.9c0,0,0-0.1,0-0.1s-0.4,0.7-1.2,1.9&#10;&#9;&#9;&#9;&#9;C745.2,295.7,744,297.5,742.6,300z" style="fill: rgb(0, 104, 56);"/>
		</g><path class="st9" d="M669.7,478c0,0,19-9.7,15.5-44.1s-20-54.5-3-90.9s3.4-73.9,3.4-73.9s18.1,23,14.6,53.5s-18,38.5-7.5,64.5&#10;&#9;&#9;&#9;&#9;s26.4,55.5,1.5,91H669.7z" style="fill: rgb(0, 148, 68);" transform="matrix(1, 0, 0, 1, 0, 0)"/><path class="st10" d="M687.8,274.1c0.4,1.1,0.9,2.4,1.5,3.8c0.5,1.4,1.1,3,1.6,4.8c0.5,1.8,1.1,3.6,1.5,5.7c1,4.1,1.8,8.8,2,14&#10;&#9;&#9;&#9;&#9;c0.3,5.2,0,10.8-0.9,16.6c-0.9,5.8-2.6,11.9-4.6,18c-2,6.2-4.4,12.4-6.3,19.1c-0.9,3.3-1.6,6.8-1.9,10.3c0,0.9-0.1,1.7-0.1,2.6&#10;&#9;&#9;&#9;&#9;l0,2.6c-0.1,1.8,0.1,3.5,0.1,5.3c0.4,7,1.7,14,3.5,20.6c1.8,6.6,4,13,5.8,19.2c1.8,6.2,3.3,12.2,4.4,18c1.1,5.6,0.8,11.1,0,16&#10;&#9;&#9;&#9;&#9;c-0.8,4.9-2.3,9.3-4,13c-1.7,3.7-3.5,6.8-5.1,9.3c-1.4,2.1-2.6,3.7-3.6,4.9h6.1c0.5-0.7,1-1.5,1.5-2.3c1.6-2.7,3.5-6,5.2-10&#10;&#9;&#9;&#9;&#9;c1.7-4,3.2-8.8,3.9-14.2c0.8-5.3,0.9-11.3-0.4-17.4c-1.2-5.9-2.9-12.1-4.9-18.3c-2-6.2-4.3-12.6-6.2-19c-1.9-6.5-3.4-13.2-3.9-20&#10;&#9;&#9;&#9;&#9;c-0.1-1.7-0.3-3.4-0.3-5.1l0-2.6c0-0.8,0.1-1.7,0.1-2.6c0.2-3.3,0.8-6.7,1.6-9.9c1.6-6.6,3.9-12.9,5.8-19.1&#10;&#9;&#9;&#9;&#9;c1.9-6.2,3.4-12.4,4.3-18.3c0.9-5.9,1-11.6,0.6-16.9c-0.4-5.2-1.3-9.9-2.4-14c-0.5-2.1-1.1-3.9-1.7-5.7c-0.6-1.7-1.2-3.3-1.7-4.7&#10;&#9;&#9;&#9;&#9;c-0.6-1.4-1.1-2.7-1.6-3.7c-0.4-1.1-0.9-2-1.2-2.7c-0.7-1.5-1.1-2.3-1.1-2.3s0.3,0.8,1,2.3C686.9,272.1,687.3,273,687.8,274.1z" style="fill: rgb(0, 104, 56);" transform="matrix(1, 0, 0, 1, 0, 0)"/><path class="st11" d="M730.5,478c0,0,19-9.7,15.5-44.1s-20-54.5-3-90.9s3.4-73.9,3.4-73.9s18.1,23,14.6,53.5s-18,38.5-7.5,64.5&#10;&#9;&#9;&#9;&#9;s26.4,55.5,1.5,91H730.5z" style="fill: rgb(57, 181, 74);" transform="matrix(1, 0, 0, 1, 0, 0)"/><path class="st9" d="M748.6,274.1c0.4,1.1,0.9,2.4,1.5,3.8c0.5,1.4,1.1,3,1.6,4.8c0.5,1.8,1.1,3.6,1.5,5.7c1,4.1,1.8,8.8,2,14&#10;&#9;&#9;&#9;&#9;c0.3,5.2,0,10.8-0.9,16.6c-0.9,5.8-2.6,11.9-4.6,18c-2,6.2-4.4,12.4-6.3,19.1c-0.9,3.3-1.6,6.8-1.9,10.3c0,0.9-0.1,1.7-0.1,2.6&#10;&#9;&#9;&#9;&#9;l0,2.6c-0.1,1.8,0.1,3.5,0.1,5.3c0.4,7,1.7,14,3.5,20.6c1.8,6.6,4,13,5.8,19.2c1.8,6.2,3.3,12.2,4.4,18c1.1,5.6,0.8,11.1,0,16&#10;&#9;&#9;&#9;&#9;c-0.8,4.9-2.3,9.3-4,13c-1.7,3.7-3.5,6.8-5.1,9.3c-1.4,2.1-2.6,3.7-3.6,4.9h6.1c0.5-0.7,1-1.5,1.5-2.3c1.6-2.7,3.5-6,5.2-10&#10;&#9;&#9;&#9;&#9;c1.7-4,3.2-8.8,3.9-14.2c0.8-5.3,0.9-11.3-0.4-17.4c-1.2-5.9-2.9-12.1-4.9-18.3c-2-6.2-4.3-12.6-6.2-19c-1.9-6.5-3.4-13.2-3.9-20&#10;&#9;&#9;&#9;&#9;c-0.1-1.7-0.3-3.4-0.3-5.1l0-2.6c0-0.8,0.1-1.7,0.1-2.6c0.2-3.3,0.8-6.7,1.6-9.9c1.6-6.6,3.9-12.9,5.8-19.1&#10;&#9;&#9;&#9;&#9;c1.9-6.2,3.4-12.4,4.3-18.3c0.9-5.9,1-11.6,0.6-16.9c-0.4-5.2-1.3-9.9-2.4-14c-0.5-2.1-1.1-3.9-1.7-5.7c-0.6-1.7-1.2-3.3-1.7-4.7&#10;&#9;&#9;&#9;&#9;c-0.6-1.4-1.1-2.7-1.6-3.7c-0.4-1.1-0.9-2-1.2-2.7c-0.7-1.5-1.1-2.3-1.1-2.3s0.3,0.8,1,2.3C747.7,272.1,748.2,273,748.6,274.1z" style="fill: rgb(0, 148, 68);" transform="matrix(1, 0, 0, 1, 0, 0)"/><path class="st11" d="M709.8,478c0,0-29.5-39.5,0-88.5s0-97,0-97s21.5,12.9,26,50.4s-15.5,52.6-16,85.6s16.7,49.5,16.7,49.5&#10;&#9;&#9;&#9;&#9;H709.8z" style="fill: rgb(57, 181, 74);" transform="matrix(1, 0, 0, 1, 0, 0)"/><path class="st9" d="M714.4,300c0.7,1.2,1.5,2.5,2.3,4c0.8,1.5,1.6,3.1,2.5,4.8c0.8,1.8,1.7,3.6,2.5,5.7c0.8,2,1.7,4.1,2.4,6.4&#10;&#9;&#9;&#9;&#9;c1.6,4.5,2.9,9.6,3.8,15c0.9,5.4,1.3,11.3,1.1,17.3c-0.2,6-1,12.2-2.4,18.4c-1.3,6.2-3.2,12.3-5.2,18.4c-2,6.1-4.2,12.1-6.2,18&#10;&#9;&#9;&#9;&#9;c-1,3-1.9,5.9-2.7,8.8c-0.4,1.5-0.7,2.9-1.1,4.3c-0.2,0.7-0.3,1.5-0.4,2.2l-0.2,1.1l-0.1,0.3l0,0.2l-0.1,0.5&#10;&#9;&#9;&#9;&#9;c-0.5,2.9-0.7,5.7-0.8,8.5c0,2.8,0,5.5,0.3,8.2c0.5,5.3,1.6,10.2,3,14.7c1.4,4.4,3.1,8.4,4.8,11.7c1.7,3.4,3.4,6.2,4.9,8.4&#10;&#9;&#9;&#9;&#9;c0.2,0.3,0.4,0.6,0.6,0.8H718c-1.2-2.1-2.6-4.5-3.9-7.3c-1.7-3.6-3.4-7.8-4.8-12.5c-1.4-4.7-2.4-10-2.8-15.6&#10;&#9;&#9;&#9;&#9;c-0.2-2.8-0.2-5.7-0.1-8.7c0.2-2.9,0.5-6,1.1-9l0.1-0.6l0.1-0.3l0.1-0.3l0.2-1.1c0.2-0.7,0.3-1.5,0.5-2.2c0.4-1.5,0.8-3,1.2-4.5&#10;&#9;&#9;&#9;&#9;c0.9-3,1.9-6,2.9-8.9c2.1-5.9,4.5-11.9,6.6-17.8c2.2-6,4.1-12,5.6-18c1.5-6,2.4-12.1,2.8-18c0.3-5.9,0.1-11.7-0.7-17.1&#10;&#9;&#9;&#9;&#9;c-0.8-5.4-2-10.4-3.4-14.9c-0.7-2.3-1.5-4.4-2.3-6.4c-0.8-2-1.6-3.9-2.4-5.7c-0.8-1.7-1.6-3.4-2.4-4.9c-0.8-1.5-1.5-2.8-2.2-4.1&#10;&#9;&#9;&#9;&#9;c-1.3-2.5-2.5-4.3-3.3-5.6c-0.6-1.1-1-1.7-1.1-1.9c0,0,0-0.1,0-0.1s0.4,0.7,1.2,1.9C711.8,295.7,713.1,297.5,714.4,300z" style="fill: rgb(0, 148, 68);" transform="matrix(1, 0, 0, 1, 0, 0)"/><path class="st11" d="M684.9,478c0,0-28-25.3,0-69.3s-2.4-68.7-6.2-86c-3.8-17.3,17.9-34.7,17.9-34.7s-16.9,23.3,0,40&#10;&#9;&#9;&#9;&#9;c16.9,16.7,28.9,51.3,10.9,81.3s2,68.7,2,68.7H684.9z" style="fill: rgb(57, 181, 74);" transform="matrix(1, 0, 0, 1, 0, 0)"/><path class="st9" d="M691.4,295.5c-1.6,2.4-3.4,5.5-5,9.2c-0.8,1.9-1.5,3.9-1.9,6.2c-0.4,2.2-0.6,4.7-0.3,7.2&#10;&#9;&#9;&#9;&#9;c0.3,2.5,1.1,5.1,2.3,7.5c1.1,2.5,2.5,4.9,4,7.3c3,4.9,6.1,10,8.5,15.6c1.2,2.9,2.2,5.7,3,8.9c0.3,1.5,0.7,3.1,1,4.7&#10;&#9;&#9;&#9;&#9;c0.2,0.8,0.3,1.6,0.5,2.4c0.1,0.8,0.2,1.6,0.3,2.4l0.3,2.4c0.1,0.8,0.2,1.6,0.2,2.4c0.1,1.6,0.1,3.2,0.2,4.8&#10;&#9;&#9;&#9;&#9;c-0.1,1.6-0.2,3.2-0.3,4.8l-0.7,4.8c-1.3,6.3-4.1,12.3-7.1,18c-3,5.8-6,11.6-8,17.7l-0.4,1.1l-0.3,1.2c-0.2,0.8-0.4,1.5-0.6,2.3&#10;&#9;&#9;&#9;&#9;c-0.5,1.6-0.7,3-1,4.5c-0.1,0.7-0.3,1.5-0.4,2.2l-0.1,0.3l0,0.1l0,0.1l0,0.1l-0.1,0.6l-0.1,1.1c-0.1,1.5-0.3,3-0.4,4.4&#10;&#9;&#9;&#9;&#9;c-0.3,5.9,0.2,11.4,1.1,16.5c0.3,1.3,0.5,2.5,0.7,3.7c0.3,1.2,0.6,2.3,0.9,3.5c0.3,1.1,0.7,2.2,1,3.3c0.3,1.1,0.7,2.1,1.1,3&#10;&#9;&#9;&#9;&#9;c1.2,3.2,2.5,5.9,3.7,8.2h5.5c-0.1-0.3-0.3-0.5-0.5-0.8c-1.4-2.4-3-5.5-4.5-9.1c-0.4-0.9-0.7-1.9-1.1-2.8c-0.3-1-0.7-2-1-3&#10;&#9;&#9;&#9;&#9;c-0.3-1.1-0.6-2.1-0.9-3.2c-0.3-1.1-0.5-2.3-0.8-3.5c-0.9-4.7-1.5-10-1.4-15.5c0-1.4,0.2-2.8,0.3-4.2l0.1-1.1l0-0.5l0-0.1&#10;&#9;&#9;&#9;&#9;c0-0.1,0,0,0,0l0-0.1l0-0.3c0.1-0.7,0.2-1.5,0.4-2.2c0.2-1.5,0.4-3,0.8-4.4c0.2-0.7,0.4-1.4,0.5-2.1l0.3-1.1l0.4-1.1&#10;&#9;&#9;&#9;&#9;c1.7-5.8,4.5-11.5,7.4-17.4c2.8-5.9,5.6-12.2,6.9-18.9c0.2-1.7,0.5-3.4,0.7-5.1c0.1-1.7,0.1-3.4,0.2-5.1c-0.1-1.7-0.2-3.4-0.3-5&#10;&#9;&#9;&#9;&#9;c0-0.8-0.2-1.7-0.3-2.5l-0.4-2.5c-0.1-0.8-0.3-1.6-0.4-2.4c-0.2-0.8-0.4-1.6-0.6-2.4c-0.4-1.6-0.8-3.2-1.2-4.8&#10;&#9;&#9;&#9;&#9;c-0.9-3.1-2-6.1-3.3-9c-2.5-5.8-5.9-10.9-9-15.6c-1.5-2.4-3-4.7-4.1-7.1c-1.2-2.4-2-4.8-2.4-7.2c-0.7-4.9,0.4-9.4,1.8-13.1&#10;&#9;&#9;&#9;&#9;c1.5-3.7,3.2-6.8,4.7-9.3c1.5-2.5,2.8-4.4,3.7-5.6c0.7-1,1.2-1.7,1.3-1.9c0-0.1,0.1-0.1,0.1-0.1s-0.5,0.7-1.4,1.9&#10;&#9;&#9;&#9;&#9;C694.3,291.2,693,293,691.4,295.5z" style="fill: rgb(0, 148, 68);" transform="matrix(1, 0, 0, 1, 0, 0)"/><path class="st12" d="M735.7,478c0,0,14-23.5-7.5-73s10-63,12-85.5c2-22.5-9.7-33.5-9.7-33.5s10.3,20-6.7,44s-30.5,50-15,82&#10;&#9;&#9;&#9;&#9;s7.5,66,7.5,66H735.7z" style="fill: rgb(141, 198, 63);" transform="matrix(1, 0, 0, 1, 0, 0)"/><path d="M 730.5 286 A 0 0 0 0 1 730.5 286 A 0 0 0 0 1 730.5 286 A 0 0 0 0 1 730.5 286 A 0 0 0 0 1 730.5 286 Z" class="st9" style="fill: rgb(0, 148, 68);" transform="matrix(1, 0, 0, 1, 0, 0)"/><path class="st11" d="M710.3,369.7l0.3-2.5l0.4-2.4c1.3-6.5,4.2-12.4,7.5-17.7c3.3-5.3,6.9-10,9.8-14.8c1.4-2.4,2.8-4.8,3.8-7.2&#10;&#9;&#9;&#9;&#9;&#9;c1-2.4,1.9-4.8,2.4-7.2c1.1-4.7,1.1-9.3,0.8-13.2c-0.3-4-1.2-7.4-1.9-10.1c-0.5-1.5-0.9-2.9-1.3-4c-0.2-0.6-0.4-1.2-0.5-1.7&#10;&#9;&#9;&#9;&#9;&#9;c0.6,1.4,1.2,3.3,2,5.7c0.8,2.8,1.7,6.1,2.2,10.1c0.4,4,0.5,8.6-0.5,13.5c-0.5,2.4-1.3,4.9-2.2,7.4c-1,2.5-2.3,5-3.7,7.4&#10;&#9;&#9;&#9;&#9;&#9;c-2.8,4.9-6.3,9.8-9.4,15c-3.1,5.2-5.7,11-6.8,17.2l-0.4,2.3l-0.2,2.3c-0.1,0.8-0.1,1.6-0.1,2.4l0,1.2l0,1.2&#10;&#9;&#9;&#9;&#9;&#9;c0.1,3.2,0.3,6.5,0.7,9.7c0.4,3.2,1.1,6.4,1.8,9.5c0.8,3.1,1.8,6.2,2.8,9.2c2.1,6,4.5,12,6.4,17.9c2,5.9,3.6,11.7,5,17.2&#10;&#9;&#9;&#9;&#9;&#9;c1.3,5.6,2,11.1,2.2,16.1c0.2,5.1-0.3,9.7-1,13.8c-0.3,2-0.8,3.9-1.3,5.7c-0.5,1.6-0.9,3-1.4,4.3h-5.2c0.2-0.4,0.4-0.9,0.6-1.4&#10;&#9;&#9;&#9;&#9;&#9;c0.5-1.3,1-2.7,1.5-4.3c0.4-1.6,0.9-3.3,1.3-5.2c0.7-3.8,1.3-8.1,1.3-12.9c-0.1-4.8-0.6-10-1.7-15.3c-1.2-5.5-2.7-11.2-4.5-17&#10;&#9;&#9;&#9;&#9;&#9;c-1.8-5.8-4-11.8-6-18c-1-3.1-1.9-6.3-2.7-9.5c-0.7-3.2-1.3-6.5-1.6-9.8c-0.4-3.3-0.5-6.6-0.5-9.9l0-1.3l0.1-1.2&#10;&#9;&#9;&#9;&#9;&#9;C710.2,371.4,710.2,370.6,710.3,369.7z" style="fill: rgb(57, 181, 74);" transform="matrix(1, 0, 0, 1, 0, 0)"/><path class="st9" d="M788.5,478c0,0,14-23.5-7.5-73s10-63,12-85.5s-9.7-33.5-9.7-33.5s10.3,20-6.7,44s-30.5,50-15,82&#10;&#9;&#9;&#9;&#9;s7.5,66,7.5,66H788.5z" style="fill: rgb(0, 148, 68);" transform="matrix(1, 0, 0, 1, 0, 0)"/><path d="M 783.299988 286 A 0 0 0 0 1 783.299988 286 A 0 0 0 0 1 783.299988 286 A 0 0 0 0 1 783.299988 286 A 0 0 0 0 1 783.299988 286 Z" class="st9" style="fill: rgb(0, 148, 68);" transform="matrix(1, 0, 0, 1, 0, 0)"/><path class="st10" d="M763.1,369.7l0.3-2.5l0.4-2.4c1.3-6.5,4.2-12.4,7.5-17.7c3.3-5.3,6.9-10,9.8-14.8c1.4-2.4,2.8-4.8,3.8-7.2&#10;&#9;&#9;&#9;&#9;&#9;c1-2.4,1.9-4.8,2.4-7.2c1.1-4.7,1.1-9.3,0.8-13.2c-0.3-4-1.2-7.4-1.9-10.1c-0.5-1.5-0.9-2.9-1.3-4c-0.2-0.6-0.4-1.2-0.5-1.7&#10;&#9;&#9;&#9;&#9;&#9;c0.6,1.4,1.2,3.3,2,5.7c0.8,2.8,1.7,6.1,2.2,10.1c0.4,4,0.5,8.6-0.5,13.5c-0.5,2.4-1.3,4.9-2.2,7.4c-1,2.5-2.3,5-3.7,7.4&#10;&#9;&#9;&#9;&#9;&#9;c-2.8,4.9-6.3,9.8-9.4,15c-3.1,5.2-5.7,11-6.8,17.2l-0.4,2.3l-0.2,2.3c-0.1,0.8-0.1,1.6-0.1,2.4l0,1.2l0,1.2&#10;&#9;&#9;&#9;&#9;&#9;c0.1,3.2,0.3,6.5,0.7,9.7c0.4,3.2,1.1,6.4,1.8,9.5c0.8,3.1,1.8,6.2,2.8,9.2c2.1,6,4.5,12,6.4,17.9c2,5.9,3.6,11.7,5,17.2&#10;&#9;&#9;&#9;&#9;&#9;c1.3,5.6,2,11.1,2.2,16.1c0.2,5.1-0.3,9.7-1,13.8c-0.3,2-0.8,3.9-1.3,5.7c-0.5,1.6-0.9,3-1.4,4.3h-5.2c0.2-0.4,0.4-0.9,0.6-1.4&#10;&#9;&#9;&#9;&#9;&#9;c0.5-1.3,1-2.7,1.5-4.3c0.4-1.6,0.9-3.3,1.3-5.2c0.7-3.8,1.3-8.1,1.3-12.9c-0.1-4.8-0.6-10-1.7-15.3c-1.2-5.5-2.7-11.2-4.5-17&#10;&#9;&#9;&#9;&#9;&#9;c-1.8-5.8-4-11.8-6-18c-1-3.1-1.9-6.3-2.7-9.5c-0.7-3.2-1.3-6.5-1.6-9.8c-0.4-3.3-0.5-6.6-0.5-9.9l0-1.3l0.1-1.2&#10;&#9;&#9;&#9;&#9;&#9;C763,371.4,763,370.6,763.1,369.7z" style="fill: rgb(0, 104, 56);" transform="matrix(1, 0, 0, 1, 0, 0)"/><path class="st12" d="M682.5,478c0,0,29.5-39.5,0-88.5s0-97,0-97s-21.5,12.9-26,50.4s15.5,52.6,16,85.6S655.9,478,655.9,478&#10;&#9;&#9;&#9;&#9;H682.5z" style="fill: rgb(141, 198, 63);" transform="matrix(1, 0, 0, 1, 0, 0)"/><path class="st11" d="M677.9,300c-0.7,1.2-1.5,2.5-2.3,4c-0.8,1.5-1.6,3.1-2.5,4.8c-0.8,1.8-1.7,3.6-2.5,5.7&#10;&#9;&#9;&#9;&#9;c-0.8,2-1.7,4.1-2.4,6.4c-1.6,4.5-2.9,9.6-3.8,15c-0.9,5.4-1.3,11.3-1.1,17.3c0.2,6,1,12.2,2.4,18.4c1.3,6.2,3.2,12.3,5.2,18.4&#10;&#9;&#9;&#9;&#9;c2,6.1,4.2,12.1,6.2,18c1,3,1.9,5.9,2.7,8.8c0.4,1.5,0.7,2.9,1.1,4.3c0.2,0.7,0.3,1.5,0.4,2.2l0.2,1.1l0.1,0.3l0,0.2l0.1,0.5&#10;&#9;&#9;&#9;&#9;c0.5,2.9,0.7,5.7,0.8,8.5c0,2.8,0,5.5-0.3,8.2c-0.5,5.3-1.6,10.2-3,14.7c-1.4,4.4-3.1,8.4-4.8,11.7c-1.7,3.4-3.4,6.2-4.9,8.4&#10;&#9;&#9;&#9;&#9;c-0.2,0.3-0.4,0.6-0.6,0.8h5.7c1.2-2.1,2.6-4.5,3.9-7.3c1.7-3.6,3.4-7.8,4.8-12.5c1.4-4.7,2.4-10,2.8-15.6&#10;&#9;&#9;&#9;&#9;c0.2-2.8,0.2-5.7,0.1-8.7c-0.2-2.9-0.5-6-1.1-9l-0.1-0.6l-0.1-0.3l-0.1-0.3l-0.2-1.1c-0.2-0.7-0.3-1.5-0.5-2.2&#10;&#9;&#9;&#9;&#9;c-0.4-1.5-0.8-3-1.2-4.5c-0.9-3-1.9-6-2.9-8.9c-2.1-5.9-4.5-11.9-6.6-17.8c-2.2-6-4.1-12-5.6-18c-1.5-6-2.4-12.1-2.8-18&#10;&#9;&#9;&#9;&#9;c-0.3-5.9-0.1-11.7,0.7-17.1c0.8-5.4,2-10.4,3.4-14.9c0.7-2.3,1.5-4.4,2.3-6.4c0.8-2,1.6-3.9,2.4-5.7c0.8-1.7,1.6-3.4,2.4-4.9&#10;&#9;&#9;&#9;&#9;c0.8-1.5,1.5-2.8,2.2-4.1c1.3-2.5,2.5-4.3,3.3-5.6c0.6-1.1,1-1.7,1.1-1.9c0,0,0-0.1,0-0.1s-0.4,0.7-1.2,1.9&#10;&#9;&#9;&#9;&#9;C680.5,295.7,679.3,297.5,677.9,300z" style="fill: rgb(57, 181, 74);" transform="matrix(1, 0, 0, 1, 0, 0)"/><path class="st11" d="M791,478c0,0,29.5-39.5,0-88.5s0-97,0-97s-21.5,12.9-26,50.4s15.5,52.6,16,85.6S764.4,478,764.4,478H791z" style="fill: rgb(57, 181, 74);" transform="matrix(1, 0, 0, 1, 0, 0)"/><path class="st9" d="M786.4,300c-0.7,1.2-1.5,2.5-2.3,4c-0.8,1.5-1.6,3.1-2.5,4.8c-0.8,1.8-1.7,3.6-2.5,5.7&#10;&#9;&#9;&#9;&#9;c-0.8,2-1.7,4.1-2.4,6.4c-1.6,4.5-2.9,9.6-3.8,15c-0.9,5.4-1.3,11.3-1.1,17.3c0.2,6,1,12.2,2.4,18.4c1.3,6.2,3.2,12.3,5.2,18.4&#10;&#9;&#9;&#9;&#9;c2,6.1,4.2,12.1,6.2,18c1,3,1.9,5.9,2.7,8.8c0.4,1.5,0.7,2.9,1.1,4.3c0.2,0.7,0.3,1.5,0.4,2.2l0.2,1.1l0.1,0.3l0,0.2l0.1,0.5&#10;&#9;&#9;&#9;&#9;c0.5,2.9,0.7,5.7,0.8,8.5c0,2.8,0,5.5-0.3,8.2c-0.5,5.3-1.6,10.2-3,14.7c-1.4,4.4-3.1,8.4-4.8,11.7c-1.7,3.4-3.4,6.2-4.9,8.4&#10;&#9;&#9;&#9;&#9;c-0.2,0.3-0.4,0.6-0.6,0.8h5.7c1.2-2.1,2.6-4.5,3.9-7.3c1.7-3.6,3.4-7.8,4.8-12.5c1.4-4.7,2.4-10,2.8-15.6&#10;&#9;&#9;&#9;&#9;c0.2-2.8,0.2-5.7,0.1-8.7c-0.2-2.9-0.5-6-1.1-9l-0.1-0.6l-0.1-0.3l-0.1-0.3l-0.2-1.1c-0.2-0.7-0.3-1.5-0.5-2.2&#10;&#9;&#9;&#9;&#9;c-0.4-1.5-0.8-3-1.2-4.5c-0.9-3-1.9-6-2.9-8.9c-2.1-5.9-4.5-11.9-6.6-17.8c-2.2-6-4.1-12-5.6-18c-1.5-6-2.4-12.1-2.8-18&#10;&#9;&#9;&#9;&#9;c-0.3-5.9-0.1-11.7,0.7-17.1c0.8-5.4,2-10.4,3.4-14.9c0.7-2.3,1.5-4.4,2.3-6.4c0.8-2,1.6-3.9,2.4-5.7c0.8-1.7,1.6-3.4,2.4-4.9&#10;&#9;&#9;&#9;&#9;c0.8-1.5,1.5-2.8,2.2-4.1c1.3-2.5,2.5-4.3,3.3-5.6c0.6-1.1,1-1.7,1.1-1.9c0,0,0-0.1,0-0.1s-0.4,0.7-1.2,1.9&#10;&#9;&#9;&#9;&#9;C789,295.7,787.8,297.5,786.4,300z" style="fill: rgb(0, 148, 68);" transform="matrix(1, 0, 0, 1, 0, 0)"/><path class="st12" d="M787.1,478c0,0-19-9.7-15.5-44.1s20-54.5,3-90.9s-3.4-73.9-3.4-73.9s-18.1,23-14.6,53.5s18,38.5,7.5,64.5&#10;&#9;&#9;&#9;&#9;s-26.4,55.5-1.5,91H787.1z" style="fill: rgb(141, 198, 63);" transform="matrix(1, 0, 0, 1, 0, 0)"/><path class="st11" d="M769,274.1c-0.4,1.1-0.9,2.4-1.5,3.8c-0.5,1.4-1.1,3-1.6,4.8c-0.5,1.8-1.1,3.6-1.5,5.7c-1,4.1-1.8,8.8-2,14&#10;&#9;&#9;&#9;&#9;c-0.3,5.2,0,10.8,0.9,16.6c0.9,5.8,2.6,11.9,4.6,18c2,6.2,4.4,12.4,6.3,19.1c0.9,3.3,1.6,6.8,1.9,10.3c0,0.9,0.1,1.7,0.1,2.6&#10;&#9;&#9;&#9;&#9;l0,2.6c0.1,1.8-0.1,3.5-0.1,5.3c-0.4,7-1.7,14-3.5,20.6c-1.8,6.6-4,13-5.8,19.2c-1.8,6.2-3.3,12.2-4.4,18c-1.1,5.6-0.8,11.1,0,16&#10;&#9;&#9;&#9;&#9;c0.8,4.9,2.3,9.3,4,13c1.7,3.7,3.5,6.8,5.1,9.3c1.4,2.1,2.6,3.7,3.6,4.9h-6.1c-0.5-0.7-1-1.5-1.5-2.3c-1.6-2.7-3.5-6-5.2-10&#10;&#9;&#9;&#9;&#9;c-1.7-4-3.2-8.8-3.9-14.2c-0.8-5.3-0.9-11.3,0.4-17.4c1.2-5.9,2.9-12.1,4.9-18.3c2-6.2,4.3-12.6,6.2-19c1.9-6.5,3.4-13.2,3.9-20&#10;&#9;&#9;&#9;&#9;c0.1-1.7,0.3-3.4,0.3-5.1l0-2.6c0-0.8-0.1-1.7-0.1-2.6c-0.2-3.3-0.8-6.7-1.6-9.9c-1.6-6.6-3.9-12.9-5.8-19.1&#10;&#9;&#9;&#9;&#9;c-1.9-6.2-3.4-12.4-4.3-18.3c-0.9-5.9-1-11.6-0.6-16.9c0.4-5.2,1.3-9.9,2.4-14c0.5-2.1,1.1-3.9,1.7-5.7c0.6-1.7,1.2-3.3,1.7-4.7&#10;&#9;&#9;&#9;&#9;c0.6-1.4,1.1-2.7,1.6-3.7c0.4-1.1,0.9-2,1.2-2.7c0.7-1.5,1.1-2.3,1.1-2.3s-0.3,0.8-1,2.3C769.8,272.1,769.4,273,769,274.1z" style="fill: rgb(57, 181, 74);" transform="matrix(1, 0, 0, 1, 0, 0)"/><path class="st12" d="M785.3,478c0,0,19-9.7,15.5-44.1s-20-54.5-3-90.9s3.4-73.9,3.4-73.9s18.1,23,14.6,53.5s-18,38.5-7.5,64.5&#10;&#9;&#9;&#9;&#9;s26.4,55.5,1.5,91H785.3z" style="fill: rgb(141, 198, 63);" transform="matrix(1, 0, 0, 1, 0, 0)"/><path class="st11" d="M803.4,274.1c0.4,1.1,0.9,2.4,1.5,3.8c0.5,1.4,1.1,3,1.6,4.8c0.5,1.8,1.1,3.6,1.5,5.7c1,4.1,1.8,8.8,2,14&#10;&#9;&#9;&#9;&#9;c0.3,5.2,0,10.8-0.9,16.6c-0.9,5.8-2.6,11.9-4.6,18c-2,6.2-4.4,12.4-6.3,19.1c-0.9,3.3-1.6,6.8-1.9,10.3c0,0.9-0.1,1.7-0.1,2.6&#10;&#9;&#9;&#9;&#9;l0,2.6c-0.1,1.8,0.1,3.5,0.1,5.3c0.4,7,1.7,14,3.5,20.6c1.8,6.6,4,13,5.8,19.2c1.8,6.2,3.3,12.2,4.4,18c1.1,5.6,0.8,11.1,0,16&#10;&#9;&#9;&#9;&#9;c-0.8,4.9-2.3,9.3-4,13c-1.7,3.7-3.5,6.8-5.1,9.3c-1.4,2.1-2.6,3.7-3.6,4.9h6.1c0.5-0.7,1-1.5,1.5-2.3c1.6-2.7,3.5-6,5.2-10&#10;&#9;&#9;&#9;&#9;c1.7-4,3.2-8.8,3.9-14.2c0.8-5.3,0.9-11.3-0.4-17.4c-1.2-5.9-2.9-12.1-4.9-18.3c-2-6.2-4.3-12.6-6.2-19c-1.9-6.5-3.4-13.2-3.9-20&#10;&#9;&#9;&#9;&#9;c-0.1-1.7-0.3-3.4-0.3-5.1l0-2.6c0-0.8,0.1-1.7,0.1-2.6c0.2-3.3,0.8-6.7,1.6-9.9c1.6-6.6,3.9-12.9,5.8-19.1&#10;&#9;&#9;&#9;&#9;c1.9-6.2,3.4-12.4,4.3-18.3c0.9-5.9,1-11.6,0.6-16.9c-0.4-5.2-1.3-9.9-2.4-14c-0.5-2.1-1.1-3.9-1.7-5.7c-0.6-1.7-1.2-3.3-1.7-4.7&#10;&#9;&#9;&#9;&#9;c-0.6-1.4-1.1-2.7-1.6-3.7c-0.4-1.1-0.9-2-1.2-2.7c-0.7-1.5-1.1-2.3-1.1-2.3s0.3,0.8,1,2.3C802.5,272.1,803,273,803.4,274.1z" style="fill: rgb(57, 181, 74);" transform="matrix(1, 0, 0, 1, 0, 0)"/><g transform="matrix(1, 0, 0, 1, 0, 0)">
			<path class="st9" d="M79.9,416c0,0-29.5-39.5,0-88.5s0-97,0-97s21.5,12.9,26,50.4s-15.5,52.6-16,85.6s16.7,49.5,16.7,49.5H79.9z" style="fill: rgb(0, 148, 68);"/>
			<path class="st10" d="M84.5,237.9c0.7,1.2,1.5,2.5,2.3,4c0.8,1.5,1.6,3.1,2.5,4.8c0.8,1.8,1.7,3.6,2.5,5.7c0.8,2,1.7,4.1,2.4,6.4&#10;&#9;&#9;&#9;&#9;c1.6,4.5,2.9,9.6,3.8,15c0.9,5.4,1.3,11.3,1.1,17.3c-0.2,6-1,12.2-2.4,18.4c-1.3,6.2-3.2,12.3-5.2,18.4c-2,6.1-4.2,12.1-6.2,18&#10;&#9;&#9;&#9;&#9;c-1,3-1.9,5.9-2.7,8.8c-0.4,1.5-0.7,2.9-1.1,4.3c-0.2,0.7-0.3,1.5-0.4,2.2l-0.2,1.1l-0.1,0.3l0,0.2l-0.1,0.5&#10;&#9;&#9;&#9;&#9;c-0.5,2.9-0.7,5.7-0.8,8.5c0,2.8,0,5.5,0.3,8.2c0.5,5.3,1.6,10.2,3,14.7c1.4,4.4,3.1,8.4,4.8,11.7c1.7,3.4,3.4,6.2,4.9,8.4&#10;&#9;&#9;&#9;&#9;c0.2,0.3,0.4,0.6,0.6,0.8h-5.7c-1.2-2.1-2.6-4.5-3.9-7.3c-1.7-3.6-3.4-7.8-4.8-12.5c-1.4-4.7-2.4-10-2.8-15.6&#10;&#9;&#9;&#9;&#9;c-0.2-2.8-0.2-5.7-0.1-8.7c0.2-2.9,0.5-6,1.1-9l0.1-0.6l0.1-0.3l0.1-0.3l0.2-1.1c0.2-0.7,0.3-1.5,0.5-2.2c0.4-1.5,0.8-3,1.2-4.5&#10;&#9;&#9;&#9;&#9;c0.9-3,1.9-6,2.9-8.9c2.1-5.9,4.5-11.9,6.6-17.8c2.2-6,4.1-12,5.6-18c1.5-6,2.4-12.1,2.8-18c0.3-5.9,0.1-11.7-0.7-17.1&#10;&#9;&#9;&#9;&#9;c-0.8-5.4-2-10.4-3.4-14.9c-0.7-2.3-1.5-4.4-2.3-6.4c-0.8-2-1.6-3.9-2.4-5.7c-0.8-1.7-1.6-3.4-2.4-4.9c-0.8-1.5-1.5-2.8-2.2-4.1&#10;&#9;&#9;&#9;&#9;c-1.3-2.5-2.5-4.3-3.3-5.6c-0.6-1.1-1-1.7-1.1-1.9c0,0,0-0.1,0-0.1s0.4,0.7,1.2,1.9C81.9,233.7,83.2,235.5,84.5,237.9z" style="fill: rgb(0, 104, 56);"/>
		</g><path class="st9" d="M157.5,416c0,0-19-9.7-15.5-44.1s20-54.5,3-90.9s-3.4-73.9-3.4-73.9s-18.1,23-14.6,53.5&#10;&#9;&#9;&#9;&#9;c3.5,30.5,18,38.5,7.5,64.5s-26.4,55.5-1.5,91H157.5z" style="fill: rgb(0, 148, 68);" transform="matrix(1, 0, 0, 1, 0, 0)"/><path class="st10" d="M139.4,212c-0.4,1.1-0.9,2.4-1.5,3.8c-0.5,1.4-1.1,3-1.6,4.8c-0.5,1.8-1.1,3.6-1.5,5.7c-1,4.1-1.8,8.8-2,14&#10;&#9;&#9;&#9;&#9;c-0.3,5.2,0,10.8,0.9,16.6c0.9,5.8,2.6,11.9,4.6,18c2,6.2,4.4,12.4,6.3,19.1c0.9,3.3,1.6,6.8,1.9,10.3c0,0.9,0.1,1.7,0.1,2.6&#10;&#9;&#9;&#9;&#9;l0,2.6c0.1,1.8-0.1,3.5-0.1,5.3c-0.4,7-1.7,14-3.5,20.6c-1.8,6.6-4,13-5.8,19.2c-1.8,6.2-3.3,12.2-4.4,18c-1.1,5.6-0.8,11.1,0,16&#10;&#9;&#9;&#9;&#9;c0.8,4.9,2.3,9.3,4,13c1.7,3.7,3.5,6.8,5.1,9.3c1.4,2.1,2.6,3.7,3.6,4.9h-6.1c-0.5-0.7-1-1.5-1.5-2.3c-1.6-2.7-3.5-6-5.2-10&#10;&#9;&#9;&#9;&#9;c-1.7-4-3.2-8.8-3.9-14.2c-0.8-5.3-0.9-11.3,0.4-17.4c1.2-5.9,2.9-12.1,4.9-18.3c2-6.2,4.3-12.6,6.2-19c1.9-6.5,3.4-13.2,3.9-20&#10;&#9;&#9;&#9;&#9;c0.1-1.7,0.3-3.4,0.3-5.1l0-2.6c0-0.8-0.1-1.7-0.1-2.6c-0.2-3.3-0.8-6.7-1.6-9.9c-1.6-6.6-3.9-12.9-5.8-19.1&#10;&#9;&#9;&#9;&#9;c-1.9-6.2-3.4-12.4-4.3-18.3c-0.9-5.9-1-11.6-0.6-16.9c0.4-5.2,1.3-9.9,2.4-14c0.5-2.1,1.1-3.9,1.7-5.7c0.6-1.7,1.2-3.3,1.7-4.7&#10;&#9;&#9;&#9;&#9;c0.6-1.4,1.1-2.7,1.6-3.7c0.4-1.1,0.9-2,1.2-2.7c0.7-1.5,1.1-2.3,1.1-2.3s-0.3,0.8-1,2.3C140.2,210,139.8,210.9,139.4,212z" style="fill: rgb(0, 104, 56);" transform="matrix(1, 0, 0, 1, 0, 0)"/><path class="st11" d="M96.6,416c0,0-19-9.7-15.5-44.1s20-54.5,3-90.9S80.7,207,80.7,207s-18.1,23-14.6,53.5s18,38.5,7.5,64.5&#10;&#9;&#9;&#9;&#9;s-26.4,55.5-1.5,91H96.6z" style="fill: rgb(57, 181, 74);" transform="matrix(1, 0, 0, 1, 0, 0)"/><path class="st9" d="M78.5,212c-0.4,1.1-0.9,2.4-1.5,3.8c-0.5,1.4-1.1,3-1.6,4.8c-0.5,1.8-1.1,3.6-1.5,5.7c-1,4.1-1.8,8.8-2,14&#10;&#9;&#9;&#9;&#9;c-0.3,5.2,0,10.8,0.9,16.6c0.9,5.8,2.6,11.9,4.6,18c2,6.2,4.4,12.4,6.3,19.1c0.9,3.3,1.6,6.8,1.9,10.3c0,0.9,0.1,1.7,0.1,2.6&#10;&#9;&#9;&#9;&#9;l0,2.6c0.1,1.8-0.1,3.5-0.1,5.3c-0.4,7-1.7,14-3.5,20.6c-1.8,6.6-4,13-5.8,19.2c-1.8,6.2-3.3,12.2-4.4,18c-1.1,5.6-0.8,11.1,0,16&#10;&#9;&#9;&#9;&#9;c0.8,4.9,2.3,9.3,4,13c1.7,3.7,3.5,6.8,5.1,9.3c1.4,2.1,2.6,3.7,3.6,4.9h-6.1c-0.5-0.7-1-1.5-1.5-2.3c-1.6-2.7-3.5-6-5.2-10&#10;&#9;&#9;&#9;&#9;c-1.7-4-3.2-8.8-3.9-14.2c-0.8-5.3-0.9-11.3,0.4-17.4c1.2-5.9,2.9-12.1,4.9-18.3c2-6.2,4.3-12.6,6.2-19c1.9-6.5,3.4-13.2,3.9-20&#10;&#9;&#9;&#9;&#9;c0.1-1.7,0.3-3.4,0.3-5.1l0-2.6c0-0.8-0.1-1.7-0.1-2.6c-0.2-3.3-0.8-6.7-1.6-9.9c-1.6-6.6-3.9-12.9-5.8-19.1&#10;&#9;&#9;&#9;&#9;c-1.9-6.2-3.4-12.4-4.3-18.3c-0.9-5.9-1-11.6-0.6-16.9c0.4-5.2,1.3-9.9,2.4-14c0.5-2.1,1.1-3.9,1.7-5.7c0.6-1.7,1.2-3.3,1.7-4.7&#10;&#9;&#9;&#9;&#9;c0.6-1.4,1.1-2.7,1.6-3.7c0.4-1.1,0.9-2,1.2-2.7c0.7-1.5,1.1-2.3,1.1-2.3s-0.3,0.8-1,2.3C79.4,210,79,210.9,78.5,212z" style="fill: rgb(0, 148, 68);" transform="matrix(1, 0, 0, 1, 0, 0)"/><path class="st11" d="M117.4,416c0,0,29.5-39.5,0-88.5s0-97,0-97s-21.5,12.9-26,50.4s15.5,52.6,16,85.6S90.7,416,90.7,416H117.4z&#10;&#9;&#9;&#9;&#9;" style="fill: rgb(57, 181, 74);" transform="matrix(1, 0, 0, 1, 0, 0)"/><path class="st9" d="M112.7,237.9c-0.7,1.2-1.5,2.5-2.3,4c-0.8,1.5-1.6,3.1-2.5,4.8c-0.8,1.8-1.7,3.6-2.5,5.7&#10;&#9;&#9;&#9;&#9;c-0.8,2-1.7,4.1-2.4,6.4c-1.6,4.5-2.9,9.6-3.8,15c-0.9,5.4-1.3,11.3-1.1,17.3c0.2,6,1,12.2,2.4,18.4c1.3,6.2,3.2,12.3,5.2,18.4&#10;&#9;&#9;&#9;&#9;c2,6.1,4.2,12.1,6.2,18c1,3,1.9,5.9,2.7,8.8c0.4,1.5,0.7,2.9,1.1,4.3c0.2,0.7,0.3,1.5,0.4,2.2l0.2,1.1l0.1,0.3l0,0.2l0.1,0.5&#10;&#9;&#9;&#9;&#9;c0.5,2.9,0.7,5.7,0.8,8.5c0,2.8,0,5.5-0.3,8.2c-0.5,5.3-1.6,10.2-3,14.7c-1.4,4.4-3.1,8.4-4.8,11.7c-1.7,3.4-3.4,6.2-4.9,8.4&#10;&#9;&#9;&#9;&#9;c-0.2,0.3-0.4,0.6-0.6,0.8h5.7c1.2-2.1,2.6-4.5,3.9-7.3c1.7-3.6,3.4-7.8,4.8-12.5c1.4-4.7,2.4-10,2.8-15.6&#10;&#9;&#9;&#9;&#9;c0.2-2.8,0.2-5.7,0.1-8.7c-0.2-2.9-0.5-6-1.1-9l-0.1-0.6l-0.1-0.3l-0.1-0.3l-0.2-1.1c-0.2-0.7-0.3-1.5-0.5-2.2&#10;&#9;&#9;&#9;&#9;c-0.4-1.5-0.8-3-1.2-4.5c-0.9-3-1.9-6-2.9-8.9c-2.1-5.9-4.5-11.9-6.6-17.8c-2.2-6-4.1-12-5.6-18c-1.5-6-2.4-12.1-2.8-18&#10;&#9;&#9;&#9;&#9;c-0.3-5.9-0.1-11.7,0.7-17.1c0.8-5.4,2-10.4,3.4-14.9c0.7-2.3,1.5-4.4,2.3-6.4c0.8-2,1.6-3.9,2.4-5.7c0.8-1.7,1.6-3.4,2.4-4.9&#10;&#9;&#9;&#9;&#9;c0.8-1.5,1.5-2.8,2.2-4.1c1.3-2.5,2.5-4.3,3.3-5.6c0.6-1.1,1-1.7,1.1-1.9c0,0,0-0.1,0-0.1s-0.4,0.7-1.2,1.9&#10;&#9;&#9;&#9;&#9;C115.4,233.7,114.1,235.5,112.7,237.9z" style="fill: rgb(0, 148, 68);" transform="matrix(1, 0, 0, 1, 0, 0)"/><path class="st11" d="M142.2,416c0,0,28-25.3,0-69.3s2.4-68.7,6.2-86c3.8-17.3-17.9-34.7-17.9-34.7s16.9,23.3,0,40&#10;&#9;&#9;&#9;&#9;s-28.9,51.3-10.9,81.3s-2,68.7-2,68.7H142.2z" style="fill: rgb(57, 181, 74);" transform="matrix(1, 0, 0, 1, 0, 0)"/><path class="st9" d="M135.8,233.4c1.6,2.4,3.4,5.5,5,9.2c0.8,1.9,1.5,3.9,1.9,6.2c0.4,2.2,0.6,4.7,0.3,7.2&#10;&#9;&#9;&#9;&#9;c-0.3,2.5-1.1,5.1-2.3,7.5c-1.1,2.5-2.5,4.9-4,7.3c-3,4.9-6.1,10-8.5,15.6c-1.2,2.9-2.2,5.7-3,8.9c-0.3,1.5-0.7,3.1-1,4.7&#10;&#9;&#9;&#9;&#9;c-0.2,0.8-0.3,1.6-0.5,2.4c-0.1,0.8-0.2,1.6-0.3,2.4l-0.3,2.4c-0.1,0.8-0.2,1.6-0.2,2.4c-0.1,1.6-0.1,3.2-0.2,4.8&#10;&#9;&#9;&#9;&#9;c0.1,1.6,0.2,3.2,0.3,4.8l0.7,4.8c1.3,6.3,4.1,12.3,7.1,18c3,5.8,6,11.6,8,17.7l0.4,1.1l0.3,1.2c0.2,0.8,0.4,1.5,0.6,2.3&#10;&#9;&#9;&#9;&#9;c0.5,1.6,0.7,3,1,4.5c0.1,0.7,0.3,1.5,0.4,2.2l0.1,0.3l0,0.1l0,0.1l0,0.1l0.1,0.6l0.1,1.1c0.1,1.5,0.3,3,0.4,4.4&#10;&#9;&#9;&#9;&#9;c0.3,5.9-0.2,11.4-1.1,16.5c-0.3,1.3-0.5,2.5-0.7,3.7c-0.3,1.2-0.6,2.3-0.9,3.5c-0.3,1.1-0.7,2.2-1,3.3c-0.3,1.1-0.7,2.1-1.1,3&#10;&#9;&#9;&#9;&#9;c-1.2,3.2-2.5,5.9-3.7,8.2H128c0.1-0.3,0.3-0.5,0.5-0.8c1.4-2.4,3-5.5,4.5-9.1c0.4-0.9,0.7-1.9,1.1-2.8c0.3-1,0.7-2,1-3&#10;&#9;&#9;&#9;&#9;c0.3-1.1,0.6-2.1,0.9-3.2c0.3-1.1,0.5-2.3,0.8-3.5c0.9-4.7,1.5-10,1.4-15.5c0-1.4-0.2-2.8-0.3-4.2l-0.1-1.1l0-0.5l0-0.1&#10;&#9;&#9;&#9;&#9;c0-0.1,0,0,0,0l0-0.1l0-0.3c-0.1-0.7-0.2-1.5-0.4-2.2c-0.2-1.5-0.4-3-0.8-4.4c-0.2-0.7-0.4-1.4-0.5-2.1l-0.3-1.1l-0.4-1.1&#10;&#9;&#9;&#9;&#9;c-1.7-5.8-4.5-11.5-7.4-17.4c-2.8-5.9-5.6-12.2-6.9-18.9c-0.2-1.7-0.5-3.4-0.7-5.1c-0.1-1.7-0.1-3.4-0.2-5.1&#10;&#9;&#9;&#9;&#9;c0.1-1.7,0.2-3.4,0.3-5c0-0.8,0.2-1.7,0.3-2.5l0.4-2.5c0.1-0.8,0.3-1.6,0.4-2.4c0.2-0.8,0.4-1.6,0.6-2.4c0.4-1.6,0.8-3.2,1.2-4.8&#10;&#9;&#9;&#9;&#9;c0.9-3.1,2-6.1,3.3-9c2.5-5.8,5.9-10.9,9-15.6c1.5-2.4,3-4.7,4.1-7.1c1.2-2.4,2-4.8,2.4-7.2c0.7-4.9-0.4-9.4-1.8-13.1&#10;&#9;&#9;&#9;&#9;c-1.5-3.7-3.2-6.8-4.7-9.3c-1.5-2.5-2.8-4.4-3.7-5.6c-0.7-1-1.2-1.7-1.3-1.9c0-0.1-0.1-0.1-0.1-0.1s0.5,0.7,1.4,1.9&#10;&#9;&#9;&#9;&#9;C132.8,229.2,134.2,231,135.8,233.4z" style="fill: rgb(0, 148, 68);" transform="matrix(1, 0, 0, 1, 0, 0)"/><path class="st12" d="M91.4,416c0,0-14-23.5,7.5-73s-10-63-12-85.5c-2-22.5,9.7-33.5,9.7-33.5s-10.3,20,6.7,44s30.5,50,15,82&#10;&#9;&#9;&#9;&#9;s-7.5,66-7.5,66H91.4z" style="fill: rgb(141, 198, 63);" transform="matrix(1, 0, 0, 1, 0, 0)"/><path d="M 96.599998 224 A 0 0 0 0 1 96.599998 224 A 0 0 0 0 1 96.599998 224 A 0 0 0 0 1 96.599998 224 A 0 0 0 0 1 96.599998 224 Z" class="st9" style="fill: rgb(0, 148, 68);" transform="matrix(1, 0, 0, 1, 0, 0)"/><path class="st11" d="M116.8,307.7l-0.3-2.5l-0.4-2.4c-1.3-6.5-4.2-12.4-7.5-17.7c-3.3-5.3-6.9-10-9.8-14.8&#10;&#9;&#9;&#9;&#9;&#9;c-1.4-2.4-2.8-4.8-3.8-7.2c-1-2.4-1.9-4.8-2.4-7.2c-1.1-4.7-1.1-9.3-0.8-13.2c0.3-4,1.2-7.4,1.9-10.1c0.5-1.5,0.9-2.9,1.3-4&#10;&#9;&#9;&#9;&#9;&#9;c0.2-0.6,0.4-1.2,0.5-1.7c-0.6,1.4-1.2,3.3-2,5.7c-0.8,2.8-1.7,6.1-2.2,10.1c-0.4,4-0.5,8.6,0.5,13.5c0.5,2.4,1.3,4.9,2.2,7.4&#10;&#9;&#9;&#9;&#9;&#9;c1,2.5,2.3,5,3.7,7.4c2.8,4.9,6.3,9.8,9.4,15c3.1,5.2,5.7,11,6.8,17.2l0.4,2.3l0.2,2.3c0.1,0.8,0.1,1.6,0.1,2.4l0,1.2l0,1.2&#10;&#9;&#9;&#9;&#9;&#9;c-0.1,3.2-0.3,6.5-0.7,9.7c-0.4,3.2-1.1,6.4-1.8,9.5c-0.8,3.1-1.8,6.2-2.8,9.2c-2.1,6-4.5,12-6.4,17.9c-2,5.9-3.6,11.7-5,17.2&#10;&#9;&#9;&#9;&#9;&#9;c-1.3,5.6-2,11.1-2.2,16.1c-0.2,5.1,0.3,9.7,1,13.8c0.3,2,0.8,3.9,1.3,5.7c0.5,1.6,0.9,3,1.4,4.3h5.2c-0.2-0.4-0.4-0.9-0.6-1.4&#10;&#9;&#9;&#9;&#9;&#9;c-0.5-1.3-1-2.7-1.5-4.3c-0.4-1.6-0.9-3.3-1.3-5.2c-0.7-3.8-1.3-8.1-1.3-12.9c0.1-4.8,0.6-10,1.7-15.3c1.2-5.5,2.7-11.2,4.5-17&#10;&#9;&#9;&#9;&#9;&#9;c1.8-5.8,4-11.8,6-18c1-3.1,1.9-6.3,2.7-9.5c0.7-3.2,1.3-6.5,1.6-9.8c0.4-3.3,0.5-6.6,0.5-9.9l0-1.3l-0.1-1.2&#10;&#9;&#9;&#9;&#9;&#9;C116.9,309.3,116.9,308.6,116.8,307.7z" style="fill: rgb(57, 181, 74);" transform="matrix(1, 0, 0, 1, 0, 0)"/><path class="st9" d="M38.6,416c0,0-14-23.5,7.5-73s-10-63-12-85.5c-2-22.5,9.7-33.5,9.7-33.5s-10.3,20,6.7,44s30.5,50,15,82&#10;&#9;&#9;&#9;&#9;s-7.5,66-7.5,66H38.6z" style="fill: rgb(0, 148, 68);" transform="matrix(1, 0, 0, 1, 0, 0)"/><path d="M 43.900002 224 A 0 0 0 0 1 43.900002 224 A 0 0 0 0 1 43.900002 224 A 0 0 0 0 1 43.900002 224 A 0 0 0 0 1 43.900002 224 Z" class="st9" style="fill: rgb(0, 148, 68);" transform="matrix(1, 0, 0, 1, 0, 0)"/><path class="st10" d="M64,307.7l-0.3-2.5l-0.4-2.4c-1.3-6.5-4.2-12.4-7.5-17.7c-3.3-5.3-6.9-10-9.8-14.8&#10;&#9;&#9;&#9;&#9;&#9;c-1.4-2.4-2.8-4.8-3.8-7.2c-1-2.4-1.9-4.8-2.4-7.2c-1.1-4.7-1.1-9.3-0.8-13.2c0.3-4,1.2-7.4,1.9-10.1c0.5-1.5,0.9-2.9,1.3-4&#10;&#9;&#9;&#9;&#9;&#9;c0.2-0.6,0.4-1.2,0.5-1.7c-0.6,1.4-1.2,3.3-2,5.7c-0.8,2.8-1.7,6.1-2.2,10.1c-0.4,4-0.5,8.6,0.5,13.5c0.5,2.4,1.3,4.9,2.2,7.4&#10;&#9;&#9;&#9;&#9;&#9;c1,2.5,2.3,5,3.7,7.4c2.8,4.9,6.3,9.8,9.4,15c3.1,5.2,5.7,11,6.8,17.2l0.4,2.3l0.2,2.3c0.1,0.8,0.1,1.6,0.1,2.4l0,1.2l0,1.2&#10;&#9;&#9;&#9;&#9;&#9;c-0.1,3.2-0.3,6.5-0.7,9.7c-0.4,3.2-1.1,6.4-1.8,9.5c-0.8,3.1-1.8,6.2-2.8,9.2c-2.1,6-4.5,12-6.4,17.9c-2,5.9-3.6,11.7-5,17.2&#10;&#9;&#9;&#9;&#9;&#9;c-1.3,5.6-2,11.1-2.2,16.1c-0.2,5.1,0.3,9.7,1,13.8c0.3,2,0.8,3.9,1.3,5.7c0.5,1.6,0.9,3,1.4,4.3h5.2c-0.2-0.4-0.4-0.9-0.6-1.4&#10;&#9;&#9;&#9;&#9;&#9;c-0.5-1.3-1-2.7-1.5-4.3c-0.4-1.6-0.9-3.3-1.3-5.2c-0.7-3.8-1.3-8.1-1.3-12.9c0.1-4.8,0.6-10,1.7-15.3c1.2-5.5,2.7-11.2,4.5-17&#10;&#9;&#9;&#9;&#9;&#9;c1.8-5.8,4-11.8,6-18c1-3.1,1.9-6.3,2.7-9.5c0.7-3.2,1.3-6.5,1.6-9.8c0.4-3.3,0.5-6.6,0.5-9.9l0-1.3l-0.1-1.2&#10;&#9;&#9;&#9;&#9;&#9;C64.1,309.3,64.1,308.6,64,307.7z" style="fill: rgb(0, 104, 56);" transform="matrix(1, 0, 0, 1, 0, 0)"/><path class="st12" d="M144.6,416c0,0-29.5-39.5,0-88.5s0-97,0-97s21.5,12.9,26,50.4s-15.5,52.6-16,85.6s16.7,49.5,16.7,49.5&#10;&#9;&#9;&#9;&#9;H144.6z" style="fill: rgb(141, 198, 63);" transform="matrix(1, 0, 0, 1, 0, 0)"/><path class="st11" d="M149.2,237.9c0.7,1.2,1.5,2.5,2.3,4c0.8,1.5,1.6,3.1,2.5,4.8c0.8,1.8,1.7,3.6,2.5,5.7&#10;&#9;&#9;&#9;&#9;c0.8,2,1.7,4.1,2.4,6.4c1.6,4.5,2.9,9.6,3.8,15c0.9,5.4,1.3,11.3,1.1,17.3c-0.2,6-1,12.2-2.4,18.4c-1.3,6.2-3.2,12.3-5.2,18.4&#10;&#9;&#9;&#9;&#9;c-2,6.1-4.2,12.1-6.2,18c-1,3-1.9,5.9-2.7,8.8c-0.4,1.5-0.7,2.9-1.1,4.3c-0.2,0.7-0.3,1.5-0.4,2.2l-0.2,1.1l-0.1,0.3l0,0.2&#10;&#9;&#9;&#9;&#9;l-0.1,0.5c-0.5,2.9-0.7,5.7-0.8,8.5c0,2.8,0,5.5,0.3,8.2c0.5,5.3,1.6,10.2,3,14.7c1.4,4.4,3.1,8.4,4.8,11.7&#10;&#9;&#9;&#9;&#9;c1.7,3.4,3.4,6.2,4.9,8.4c0.2,0.3,0.4,0.6,0.6,0.8h-5.7c-1.2-2.1-2.6-4.5-3.9-7.3c-1.7-3.6-3.4-7.8-4.8-12.5&#10;&#9;&#9;&#9;&#9;c-1.4-4.7-2.4-10-2.8-15.6c-0.2-2.8-0.2-5.7-0.1-8.7c0.2-2.9,0.5-6,1.1-9l0.1-0.6l0.1-0.3l0.1-0.3l0.2-1.1&#10;&#9;&#9;&#9;&#9;c0.2-0.7,0.3-1.5,0.5-2.2c0.4-1.5,0.8-3,1.2-4.5c0.9-3,1.9-6,2.9-8.9c2.1-5.9,4.5-11.9,6.6-17.8c2.2-6,4.1-12,5.6-18&#10;&#9;&#9;&#9;&#9;c1.5-6,2.4-12.1,2.8-18c0.3-5.9,0.1-11.7-0.7-17.1c-0.8-5.4-2-10.4-3.4-14.9c-0.7-2.3-1.5-4.4-2.3-6.4c-0.8-2-1.6-3.9-2.4-5.7&#10;&#9;&#9;&#9;&#9;c-0.8-1.7-1.6-3.4-2.4-4.9c-0.8-1.5-1.5-2.8-2.2-4.1c-1.3-2.5-2.5-4.3-3.3-5.6c-0.6-1.1-1-1.7-1.1-1.9c0,0,0-0.1,0-0.1&#10;&#9;&#9;&#9;&#9;s0.4,0.7,1.2,1.9C146.6,233.7,147.9,235.5,149.2,237.9z" style="fill: rgb(57, 181, 74);" transform="matrix(1, 0, 0, 1, 0, 0)"/><path class="st11" d="M36.1,416c0,0-29.5-39.5,0-88.5s0-97,0-97s21.5,12.9,26,50.4s-15.5,52.6-16,85.6S62.8,416,62.8,416H36.1z" style="fill: rgb(57, 181, 74);" transform="matrix(1, 0, 0, 1, 0, 0)"/><path class="st9" d="M40.7,237.9c0.7,1.2,1.5,2.5,2.3,4c0.8,1.5,1.6,3.1,2.5,4.8c0.8,1.8,1.7,3.6,2.5,5.7c0.8,2,1.7,4.1,2.4,6.4&#10;&#9;&#9;&#9;&#9;c1.6,4.5,2.9,9.6,3.8,15c0.9,5.4,1.3,11.3,1.1,17.3c-0.2,6-1,12.2-2.4,18.4c-1.3,6.2-3.2,12.3-5.2,18.4c-2,6.1-4.2,12.1-6.2,18&#10;&#9;&#9;&#9;&#9;c-1,3-1.9,5.9-2.7,8.8c-0.4,1.5-0.7,2.9-1.1,4.3c-0.2,0.7-0.3,1.5-0.4,2.2l-0.2,1.1l-0.1,0.3l0,0.2l-0.1,0.5&#10;&#9;&#9;&#9;&#9;c-0.5,2.9-0.7,5.7-0.8,8.5c0,2.8,0,5.5,0.3,8.2c0.5,5.3,1.6,10.2,3,14.7c1.4,4.4,3.1,8.4,4.8,11.7c1.7,3.4,3.4,6.2,4.9,8.4&#10;&#9;&#9;&#9;&#9;c0.2,0.3,0.4,0.6,0.6,0.8h-5.7c-1.2-2.1-2.6-4.5-3.9-7.3c-1.7-3.6-3.4-7.8-4.8-12.5c-1.4-4.7-2.4-10-2.8-15.6&#10;&#9;&#9;&#9;&#9;c-0.2-2.8-0.2-5.7-0.1-8.7c0.2-2.9,0.5-6,1.1-9l0.1-0.6l0.1-0.3l0.1-0.3l0.2-1.1c0.2-0.7,0.3-1.5,0.5-2.2c0.4-1.5,0.8-3,1.2-4.5&#10;&#9;&#9;&#9;&#9;c0.9-3,1.9-6,2.9-8.9c2.1-5.9,4.5-11.9,6.6-17.8c2.2-6,4.1-12,5.6-18c1.5-6,2.4-12.1,2.8-18c0.3-5.9,0.1-11.7-0.7-17.1&#10;&#9;&#9;&#9;&#9;c-0.8-5.4-2-10.4-3.4-14.9c-0.7-2.3-1.5-4.4-2.3-6.4c-0.8-2-1.6-3.9-2.4-5.7c-0.8-1.7-1.6-3.4-2.4-4.9c-0.8-1.5-1.5-2.8-2.2-4.1&#10;&#9;&#9;&#9;&#9;c-1.3-2.5-2.5-4.3-3.3-5.6c-0.6-1.1-1-1.7-1.1-1.9c0,0,0-0.1,0-0.1s0.4,0.7,1.2,1.9C38.1,233.7,39.4,235.5,40.7,237.9z" style="fill: rgb(0, 148, 68);" transform="matrix(1, 0, 0, 1, 0, 0)"/><path class="st12" d="M40,416c0,0,19-9.7,15.5-44.1s-20-54.5-3-90.9S56,207,56,207s18.1,23,14.6,53.5S52.5,299,63,325&#10;&#9;&#9;&#9;&#9;s26.4,55.5,1.5,91H40z" style="fill: rgb(141, 198, 63);" transform="matrix(1, 0, 0, 1, 0, 0)"/><path class="st11" d="M58.2,212c0.4,1.1,0.9,2.4,1.5,3.8c0.5,1.4,1.1,3,1.6,4.8c0.5,1.8,1.1,3.6,1.5,5.7c1,4.1,1.8,8.8,2,14&#10;&#9;&#9;&#9;&#9;c0.3,5.2,0,10.8-0.9,16.6c-0.9,5.8-2.6,11.9-4.6,18c-2,6.2-4.4,12.4-6.3,19.1c-0.9,3.3-1.6,6.8-1.9,10.3c0,0.9-0.1,1.7-0.1,2.6&#10;&#9;&#9;&#9;&#9;l0,2.6c-0.1,1.8,0.1,3.5,0.1,5.3c0.4,7,1.7,14,3.5,20.6c1.8,6.6,4,13,5.8,19.2c1.8,6.2,3.3,12.2,4.4,18c1.1,5.6,0.8,11.1,0,16&#10;&#9;&#9;&#9;&#9;c-0.8,4.9-2.3,9.3-4,13c-1.7,3.7-3.5,6.8-5.1,9.3c-1.4,2.1-2.6,3.7-3.6,4.9h6.1c0.5-0.7,1-1.5,1.5-2.3c1.6-2.7,3.5-6,5.2-10&#10;&#9;&#9;&#9;&#9;c1.7-4,3.2-8.8,3.9-14.2c0.8-5.3,0.9-11.3-0.4-17.4c-1.2-5.9-2.9-12.1-4.9-18.3c-2-6.2-4.3-12.6-6.2-19c-1.9-6.5-3.4-13.2-3.9-20&#10;&#9;&#9;&#9;&#9;c-0.1-1.7-0.3-3.4-0.3-5.1l0-2.6c0-0.8,0.1-1.7,0.1-2.6c0.2-3.3,0.8-6.7,1.6-9.9c1.6-6.6,3.9-12.9,5.8-19.1&#10;&#9;&#9;&#9;&#9;c1.9-6.2,3.4-12.4,4.3-18.3c0.9-5.9,1-11.6,0.6-16.9c-0.4-5.2-1.3-9.9-2.4-14c-0.5-2.1-1.1-3.9-1.7-5.7c-0.6-1.7-1.2-3.3-1.7-4.7&#10;&#9;&#9;&#9;&#9;c-0.6-1.4-1.1-2.7-1.6-3.7c-0.4-1.1-0.9-2-1.2-2.7c-0.7-1.5-1.1-2.3-1.1-2.3s0.3,0.8,1,2.3C57.3,210,57.7,210.9,58.2,212z" style="fill: rgb(57, 181, 74);" transform="matrix(1, 0, 0, 1, 0, 0)"/><path class="st12" d="M41.9,416c0,0-19-9.7-15.5-44.1s20-54.5,3-90.9S25.9,207,25.9,207s-18.1,23-14.6,53.5s18,38.5,7.5,64.5&#10;&#9;&#9;&#9;&#9;s-26.4,55.5-1.5,91H41.9z" style="fill: rgb(141, 198, 63);" transform="matrix(1, 0, 0, 1, 0, 0)"/><path class="st11" d="M23.8,212c-0.4,1.1-0.9,2.4-1.5,3.8c-0.5,1.4-1.1,3-1.6,4.8c-0.5,1.8-1.1,3.6-1.5,5.7c-1,4.1-1.8,8.8-2,14&#10;&#9;&#9;&#9;&#9;c-0.3,5.2,0,10.8,0.9,16.6c0.9,5.8,2.6,11.9,4.6,18c2,6.2,4.4,12.4,6.3,19.1c0.9,3.3,1.6,6.8,1.9,10.3c0,0.9,0.1,1.7,0.1,2.6&#10;&#9;&#9;&#9;&#9;l0,2.6c0.1,1.8-0.1,3.5-0.1,5.3c-0.4,7-1.7,14-3.5,20.6c-1.8,6.6-4,13-5.8,19.2c-1.8,6.2-3.3,12.2-4.4,18c-1.1,5.6-0.8,11.1,0,16&#10;&#9;&#9;&#9;&#9;c0.8,4.9,2.3,9.3,4,13c1.7,3.7,3.5,6.8,5.1,9.3c1.4,2.1,2.6,3.7,3.6,4.9h-6.1c-0.5-0.7-1-1.5-1.5-2.3c-1.6-2.7-3.5-6-5.2-10&#10;&#9;&#9;&#9;&#9;c-1.7-4-3.2-8.8-3.9-14.2c-0.8-5.3-0.9-11.3,0.4-17.4c1.2-5.9,2.9-12.1,4.9-18.3c2-6.2,4.3-12.6,6.2-19c1.9-6.5,3.4-13.2,3.9-20&#10;&#9;&#9;&#9;&#9;c0.1-1.7,0.3-3.4,0.3-5.1l0-2.6c0-0.8-0.1-1.7-0.1-2.6c-0.2-3.3-0.8-6.7-1.6-9.9c-1.6-6.6-3.9-12.9-5.8-19.1&#10;&#9;&#9;&#9;&#9;c-1.9-6.2-3.4-12.4-4.3-18.3c-0.9-5.9-1-11.6-0.6-16.9c0.4-5.2,1.3-9.9,2.4-14c0.5-2.1,1.1-3.9,1.7-5.7c0.6-1.7,1.2-3.3,1.7-4.7&#10;&#9;&#9;&#9;&#9;c0.6-1.4,1.1-2.7,1.6-3.7c0.4-1.1,0.9-2,1.2-2.7c0.7-1.5,1.1-2.3,1.1-2.3s-0.3,0.8-1,2.3C24.6,210,24.2,210.9,23.8,212z" style="fill: rgb(57, 181, 74);" transform="matrix(1, 0, 0, 1, 0, 0)"/><g transform="matrix(1, 0, 0, 1, 0, 0)">
			<path class="st5" d="M281.6,316.6c8.3-2.4,10.7,16.6,10.7,16.6s11.5-10.9,11.8-12.2c0.3-1.3-2.4-16.6,3.8-17.6&#10;&#9;&#9;&#9;&#9;c4.4-0.7,5.7,10.5,6.1,17.2c0.2,3-0.9,6-3,8.2l-12.3,13l16.7,3.6c0,0,3-14,7.9-15.2c4.9-1.3,6.3,7.3,2.3,21.2l11.7-7.2l1.8-29.7&#10;&#9;&#9;&#9;&#9;c0,0-16.8-14-15.8-20.7c1-6.7,3.2-21.4,8.7-19.3s0.9,13.1,1.6,16c0.8,2.9,12.4,13.2,12.4,13.2c1.4-2,11.3-18.3,16.2-13.1&#10;&#9;&#9;&#9;&#9;c4.9,5.2-10.4,20.8-11.6,26.3c-1.2,5.5,0.5,21.1,0.5,21.1s13-6.9,16.1-10.8c3.1-3.9,12.4-26.8,18.2-20.5&#10;&#9;&#9;&#9;&#9;c5.2,5.7-6.4,25.5-8.6,29.2c-2.2,3.7-43,24.3-43,24.3s0.4,18.4,0.2,27.8c3.1,0.1,8.7,0.1,13.5-0.2l-1.9-7.1&#10;&#9;&#9;&#9;&#9;c-0.9-3.4-0.9-6.9,0.1-10.2c2-6.9,5.9-17.8,10.2-16.3c6.3,2.1-0.5,17.5-0.6,18.8c0,0.8,1,5.9,2,10.3c3.3-5.8,12.2-17.5,17.2-13.2&#10;&#9;&#9;&#9;&#9;c6,5.1-12.6,25.2-14.6,26.1c-1.7,0.7-22,3.7-28.8,4.7c-3.6,10.2-9.3,27.1-9.3,27.1l-13.1-3.4c0,0,12.3-31.7,12.4-34.1&#10;&#9;&#9;&#9;&#9;c0-2.3-1.8-30.3-1.8-30.3s-29.7-9.4-31.7-10.9C285.5,347.8,273.3,319,281.6,316.6z" style="fill: rgb(239, 91, 161);"/>
			<path class="st6" d="M337.4,344.2l1.8-29.7c0,0-16.8-14-15.8-20.7c0.9-6.3,3-19.7,7.8-19.5c-1.1,7.6-2.9,19.5-2.6,21.1&#10;&#9;&#9;&#9;&#9;c0.4,2.4,15.5,18.1,15.5,18.1L337.4,344.2z" style="fill: rgb(236, 0, 140);"/>
			<path class="st6" d="M321,390.5c0-2.3-1.8-30.3-1.8-30.3s-29.7-9.4-31.7-10.9c-2-1.4-14.2-30.3-5.9-32.7c0,0,7.5,25.3,9.6,30.2&#10;&#9;&#9;&#9;&#9;l33.8,10.6c0,0,0.3,32.3-0.1,34c-0.4,1.7-12.1,34.3-12.1,34.3l-4.2-1.1C308.6,424.6,320.9,392.8,321,390.5z" style="fill: rgb(236, 0, 140);"/>
			<path class="st6" d="M306.5,304l0.6,18.1l-11.9,14.7l-2.9-3.6c0,0,11.5-10.9,11.8-12.2C304.4,319.8,302.2,306.9,306.5,304z" style="fill: rgb(236, 0, 140);"/>
			<path class="st6" d="M323.3,330.2l-3.4,15.9l-4.5-0.7C315.5,345.4,318,331.4,323.3,330.2z" style="fill: rgb(236, 0, 140);"/>
			<path class="st6" d="M382.5,305.7c-4.1,8.9-11.9,25.5-13.1,26.4c-1.6,1.2-18.3,5.9-18.3,5.9s13-6.9,16.1-10.8&#10;&#9;&#9;&#9;&#9;C369.9,323.9,376.9,307.1,382.5,305.7z" style="fill: rgb(236, 0, 140);"/>
			<path class="st6" d="M360,289.7c-3.1,4.9-7.1,11.3-10.3,16.3l-3.7-2.2C347.2,302,354.9,289.6,360,289.7z" style="fill: rgb(236, 0, 140);"/>
			<path class="st6" d="M350.5,388.3l-2.8-0.5l-1.9-7.1c-0.9-3.4-0.9-6.9,0.1-10.2c1.6-5.6,4.4-13.7,7.7-15.9&#10;&#9;&#9;&#9;&#9;c0.8-0.2,1.6-0.4,2.4-0.4c0,0-8.3,19.4-7.7,21S350.5,388.3,350.5,388.3z" style="fill: rgb(236, 0, 140);"/>
			<path class="st6" d="M360,386.9l-2.7-3.6c3.2-5.5,11.2-16.2,16.3-13.8L360,386.9z" style="fill: rgb(236, 0, 140);"/>
		</g><path class="st7" d="M216.5,335.2c7.1-4.9,15.5,12.3,15.5,12.3s7.4-14,7.3-15.4s-7.6-15-2.1-17.9c3.9-2,8.8,8.1,11.3,14.3&#10;&#9;&#9;&#9;&#9;c1.2,2.8,1.1,6-0.2,8.7l-7.5,16.3l17-2c0,0-1.7-14.2,2.6-17s8.3,4.9,9,19.3l8.7-10.6l-7.9-28.7c0,0-20.4-7.8-21.6-14.5&#10;&#9;&#9;&#9;&#9;c-1.2-6.7-3.8-21.3,2.1-21.1c5.9,0.2,5,12.1,6.7,14.6c1.7,2.5,16,8.6,16,8.6c0.6-2.3,4.8-20.9,11.1-17.6c6.3,3.3-3.2,23-2.6,28.6&#10;&#9;&#9;&#9;&#9;c0.6,5.6,7.3,19.8,7.3,19.8s10.1-10.7,11.8-15.4s3.1-29.4,10.7-25.3c6.8,3.7,2.1,26.2,1.3,30.4s-32.9,36.8-32.9,36.8&#10;&#9;&#9;&#9;&#9;s6.3,17.3,9.1,26.3c3-1,8.3-2.7,12.7-4.5l-4.1-6.1c-1.9-2.9-3-6.2-3.2-9.7c-0.3-7.2-0.2-18.7,4.4-18.7c6.6,0,5.1,16.7,5.5,18&#10;&#9;&#9;&#9;&#9;c0.2,0.7,2.8,5.2,5.2,9.1c1.3-6.5,5.9-20.5,12-18c7.3,2.9-3.9,27.9-5.5,29.4c-1.4,1.2-19.6,10.6-25.8,13.7&#10;&#9;&#9;&#9;&#9;c-0.1,10.9-0.1,28.7-0.1,28.7l-13.5,1c0,0,1.5-34,0.8-36.2c-0.7-2.2-11.4-28.2-11.4-28.2s-31.2,0.6-33.5-0.1&#10;&#9;&#9;&#9;&#9;C230.2,363.5,209.4,340.1,216.5,335.2z" style="fill: rgb(242, 135, 183);" transform="matrix(1, 0, 0, 1, 0, 0)"/><path class="st5" d="M278.2,343.3l-7.9-28.7c0,0-20.4-7.8-21.6-14.5c-1.2-6.3-3.5-19.6,1.1-21c1.3,7.5,3.5,19.3,4.3,20.8&#10;&#9;&#9;&#9;&#9;c1.2,2.1,20.4,12.1,20.4,12.1L278.2,343.3z" style="fill: rgb(239, 91, 161);" transform="matrix(1, 0, 0, 1, 0, 0)"/><path class="st5" d="M277.5,392.4c-0.7-2.2-11.4-28.2-11.4-28.2s-31.2,0.6-33.5-0.1c-2.4-0.7-23.2-24.1-16.1-29&#10;&#9;&#9;&#9;&#9;c0,0,15.3,21.5,18.8,25.5l35.4-0.8c0,0,10.6,30.5,10.8,32.2c0.2,1.8-0.4,36.4-0.4,36.4l-4.4,0.3&#10;&#9;&#9;&#9;&#9;C276.8,428.7,278.2,394.7,277.5,392.4z" style="fill: rgb(239, 91, 161);" transform="matrix(1, 0, 0, 1, 0, 0)"/><path class="st5" d="M236,315.2l6.4,17l-6.5,17.8l-3.9-2.5c0,0,7.4-14,7.3-15.4C239.1,330.8,232.8,319.3,236,315.2z" style="fill: rgb(239, 91, 161);" transform="matrix(1, 0, 0, 1, 0, 0)"/><path class="st5" d="M260.4,334.6l1.9,16.1l-4.4,0.8C257.8,351.5,255.7,337.4,260.4,334.6z" style="fill: rgb(239, 91, 161);" transform="matrix(1, 0, 0, 1, 0, 0)"/><path class="st5" d="M308.5,292.4c-1,9.7-3,28-3.9,29.2c-1.2,1.7-15.4,11.5-15.4,11.5s10.1-10.7,11.8-15.4&#10;&#9;&#9;&#9;&#9;C302.4,313.6,303.7,295.5,308.5,292.4z" style="fill: rgb(239, 91, 161);" transform="matrix(1, 0, 0, 1, 0, 0)"/><path class="st5" d="M282.1,284.4c-1.4,5.7-3.1,12.9-4.5,18.7l-4.2-0.9C273.9,300.2,277.2,286,282.1,284.4z" style="fill: rgb(239, 91, 161);" transform="matrix(1, 0, 0, 1, 0, 0)"/><path class="st5" d="M304.7,380.9l-2.8,0.4l-4.1-6.1c-1.9-2.9-3-6.2-3.2-9.7c-0.3-5.8-0.2-14.4,2.2-17.5c0.7-0.5,1.4-0.9,2.2-1.2&#10;&#9;&#9;&#9;&#9;c0,0-1.6,21-0.6,22.3C299.4,370.4,304.7,380.9,304.7,380.9z" style="fill: rgb(239, 91, 161);" transform="matrix(1, 0, 0, 1, 0, 0)"/><path class="st5" d="M313.3,376.5l-3.7-2.5c1.2-6.2,5.4-18.9,11-18.3L313.3,376.5z" style="fill: rgb(239, 91, 161);" transform="matrix(1, 0, 0, 1, 0, 0)"/><path class="st13" d="M0,398.6c0,0,133.8-33,336.2,29.4c268,82.6,505.7,25,505.7,25v142.3H0V398.6z" style="fill: rgb(234, 206, 107);" transform="matrix(1, 0, 0, 1, 0, 0)"/><path d="M 307.8999938964844 428.70001220703125 L 90.5999984741211 400.6000061035156 L 20.600000381469727 418.6000061035156 L 101.19999694824219 440 Z" class="st14" style="fill: rgb(193, 171, 89);" transform="matrix(1, 0, 0, 1, 0, 0)"/><g transform="matrix(1, 0, 0, 1, 0, 0)">
				<g>
					<path d="M 90.5999984741211 342.70001220703125 L 58.20000076293945 241 L 213.6999969482422 241 L 242.60000610351562 326 Z" class="st15" style="fill: rgb(169, 124, 80);"/>
					<path d="M 62.099998474121094 243.8000030517578 L 211.6999969482422 243.8000030517578 L 238.8000030517578 323.6000061035156 L 92.5999984741211 339.6000061035156 Z" class="st16" style="fill: rgb(139, 94, 60);"/>
					<path class="st17" d="M58.2,241c0,0-30.2,19.8-16.4,66.5c12.4,42.1,48.8,35.2,48.8,35.2L58.2,241z" style="fill: rgb(117, 76, 41);"/>
					<path class="st17" d="M211.7,243.8c0,0-23.1,17.5-11.5,51.7c10.3,30.4,38.5,28.2,38.5,28.2L211.7,243.8z" style="fill: rgb(117, 76, 41);"/>
				</g>
				<g>
					<path d="M 127.5999984741211 241 L 127.5999984741211 233.5 L 143.60000610351562 231.8000030517578 L 144.89999389648438 241 Z" class="st18" style="fill: rgb(178, 182, 186);"/>
					<path d="M 127.5999984741211 233.5 L 116.9000015258789 241 L 127.5999984741211 241 Z" class="st19" style="fill: rgb(140, 149, 157);"/>
				</g>
			</g><path d="M 90.5999984741211 342.70001220703125 L 101.19999694824219 440 L 182.60000610351562 462 L 307.8999938964844 428.70001220703125 L 312.6000061035156 346.70001220703125 L 242.60000610351562 326 Z" class="st16" style="fill: rgb(139, 94, 60);" transform="matrix(1, 0, 0, 1, 0, 0)"/><path d="M 90.5999984741211 342.70001220703125 L 184.1999969482422 375.5 L 312.6000061035156 346.70001220703125 L 242.60000610351562 326 Z" class="st15" style="fill: rgb(169, 124, 80);" transform="matrix(1, 0, 0, 1, 0, 0)"/><path d="M 103.80000305175781 344.1000061035156 L 242.3000030517578 328.8999938964844 L 300.8999938964844 346.20001220703125 L 183.39999389648438 370.3999938964844 Z" class="st17" style="fill: rgb(117, 76, 41);" transform="matrix(1, 0, 0, 1, 0, 0)"/><path d="M 184.1999969482422 375.5 L 182.60000610351562 462 L 101.19999694824219 440 L 90.5999984741211 342.70001220703125 Z" class="st17" style="fill: rgb(117, 76, 41);" transform="matrix(1, 0, 0, 1, 0, 0)"/><path d="M 92.80000305175781 362.79998779296875 L 93.5 369.5 L 184 389.6000061035156 L 184 388.79998779296875 Z" class="st20" style="fill: rgb(96, 57, 19);" transform="matrix(1, 0, 0, 1, 0, 0)"/><path d="M 95.19999694824219 385 L 95.30000305175781 385.79998779296875 L 183.5 416.20001220703125 L 183.60000610351562 407.29998779296875 Z" class="st20" style="fill: rgb(96, 57, 19);" transform="matrix(1, 0, 0, 1, 0, 0)"/><path d="M 98.0999984741211 411 L 98.69999694824219 416.6000061035156 L 183.1999969482422 428.29998779296875 L 183.1999969482422 427.8999938964844 Z" class="st20" style="fill: rgb(96, 57, 19);" transform="matrix(1, 0, 0, 1, 0, 0)"/><path d="M 182.8000030517578 449.3999938964844 L 99.5 424.5 L 100.30000305175781 431 L 182.8000030517578 449.79998779296875 Z" class="st20" style="fill: rgb(96, 57, 19);" transform="matrix(1, 0, 0, 1, 0, 0)"/><path d="M 183.60000610351562 407.29998779296875 L 310.1000061035156 389.6000061035156 L 183.5 416.20001220703125 Z" class="st17" style="fill: rgb(117, 76, 41);" transform="matrix(1, 0, 0, 1, 0, 0)"/><path d="M 311.70001220703125 362.79998779296875 L 184 388.79998779296875 L 311.20001220703125 370.3999938964844 Z" class="st17" style="fill: rgb(117, 76, 41);" transform="matrix(1, 0, 0, 1, 0, 0)"/><path d="M 309.5 400.6000061035156 L 183.1999969482422 428.29998779296875 L 309.29998779296875 405 Z" class="st17" style="fill: rgb(117, 76, 41);" transform="matrix(1, 0, 0, 1, 0, 0)"/><path d="M 182.8000030517578 449.79998779296875 L 308.1000061035156 424.5 L 183.1999969482422 453.5 Z" class="st17" style="fill: rgb(117, 76, 41);" transform="matrix(1, 0, 0, 1, 0, 0)"/><path class="st21" d="M103.8,344.1c0,0,6.9-19.1,28.4-27.6s24.5-14,54.5-15.5s42.5,8.5,64.5,11s47.8,8.7,49.7,34.2l-117.5,24.2&#10;&#9;&#9;&#9;&#9;&#9;L103.8,344.1z" style="fill: rgb(251, 204, 52);" transform="matrix(1, 0, 0, 1, 0, 0)"/><path d="M 142.899994 333.200012 A 5.5 4 0 0 1 137.399994 337.200012 A 5.5 4 0 0 1 131.899994 333.200012 A 5.5 4 0 0 1 137.399994 329.200012 A 5.5 4 0 0 1 142.899994 333.200012 Z" transform="matrix(0.4010999798774719, -0.9160000085830688, 0.9160000085830688, 0.4010999798774719, -222.93470764160156, 325.394287109375)" class="st22" style="fill: rgb(237, 28, 36);"/><path d="M 137.400006 330.399994 A 1.3 0.6 0 0 1 136.100006 330.999994 A 1.3 0.6 0 0 1 134.800006 330.399994 A 1.3 0.6 0 0 1 136.100006 329.799994 A 1.3 0.6 0 0 1 137.400006 330.399994 Z" transform="matrix(0.6107000112533569, -0.7918999195098877, 0.7918999195098877, 0.6107000112533569, -208.65370178222656, 236.43930053710938)" class="st23" style="fill: rgb(255, 255, 255);"/><path class="st24" d="M141,329.5c0.1,1-0.1,2.2-0.6,3.3c-1.2,2.8-3.9,4.3-5.9,3.4c-0.6-0.3-1.1-0.7-1.4-1.3&#10;&#9;&#9;&#9;&#9;&#9;&#9;c0.1,1.5,0.9,2.8,2.1,3.3c2,0.9,4.7-0.6,5.9-3.4C141.9,332.9,141.9,330.8,141,329.5z" style="fill: rgb(206, 24, 30);" transform="matrix(1, 0, 0, 1, 0, 0)"/><path d="M 181.600006 349.5 A 5.5 4 0 0 1 176.100006 353.5 A 5.5 4 0 0 1 170.600006 349.5 A 5.5 4 0 0 1 176.100006 345.5 A 5.5 4 0 0 1 181.600006 349.5 Z" transform="matrix(0.2669999897480011, -0.9637000560760498, 0.9637000560760498, 0.2669999897480011, -207.7012939453125, 425.88751220703125)" class="st25" style="fill: rgb(102, 45, 145);"/><path d="M 175.8 346.899994 A 1.3 0.6 0 0 1 174.5 347.499994 A 1.3 0.6 0 0 1 173.2 346.899994 A 1.3 0.6 0 0 1 174.5 346.299994 A 1.3 0.6 0 0 1 175.8 346.899994 Z" transform="matrix(0.4921000003814697, -0.8705000281333923, 0.8705000281333923, 0.4921000003814697, -213.38499450683594, 328.1007080078125)" class="st23" style="fill: rgb(255, 255, 255);"/><path class="st26" d="M179.2,345.3c0.2,1,0.2,2.2-0.1,3.3c-0.8,2.9-3.2,4.8-5.4,4.2c-0.6-0.2-1.2-0.6-1.6-1.1&#10;&#9;&#9;&#9;&#9;&#9;&#9;c0.3,1.5,1.2,2.7,2.5,3c2.1,0.6,4.5-1.3,5.4-4.2C180.6,348.5,180.2,346.5,179.2,345.3z" style="fill: rgb(89, 35, 127);" transform="matrix(1, 0, 0, 1, 0, 0)"/><path d="M 210.199997 325.100006 A 4 5.5 0 0 1 206.199997 330.600006 A 4 5.5 0 0 1 202.199997 325.100006 A 4 5.5 0 0 1 206.199997 319.600006 A 4 5.5 0 0 1 210.199997 325.100006 Z" transform="matrix(0.9998999834060669, -0.014493939466774464, 0.014493939466774464, 0.9998999834060669, -4.690999984741211, 3.023400068283081)" class="st7" style="fill: rgb(242, 135, 183);"/><path d="M 205.3 323.100006 A 1.3 0.6 0 0 1 204 323.700006 A 1.3 0.6 0 0 1 202.7 323.100006 A 1.3 0.6 0 0 1 204 322.500006 A 1.3 0.6 0 0 1 205.3 323.100006 Z" transform="matrix(0.22769999504089355, -0.9737000465393066, 0.9737000465393066, 0.22769999504089355, -157.13999938964844, 448.16790771484375)" class="st23" style="fill: rgb(255, 255, 255);"/><path class="st5" d="M208,320.3c0.5,0.9,0.8,2,0.8,3.2c0,3-1.7,5.5-4,5.5c-0.7,0-1.3-0.2-1.9-0.6c0.8,1.3,1.9,2.2,3.3,2.2&#10;&#9;&#9;&#9;&#9;&#9;&#9;c2.2,0,4-2.5,4-5.5C210.2,323,209.3,321.1,208,320.3z" style="fill: rgb(239, 91, 161);" transform="matrix(1, 0, 0, 1, 0, 0)"/><path d="M 274.200012 336.700012 A 4 5.5 0 0 1 270.200012 342.200012 A 4 5.5 0 0 1 266.200012 336.700012 A 4 5.5 0 0 1 270.200012 331.200012 A 4 5.5 0 0 1 274.200012 336.700012 Z" transform="matrix(0.6499000191688538, -0.7601000070571899, 0.7601000070571899, 0.6499000191688538, -161.2908935546875, 323.2701110839844)" class="st9" style="fill: rgb(0, 148, 68);"/><path d="M 267.800012 337.100006 A 0.6 1.3 0 0 1 267.200012 338.400006 A 0.6 1.3 0 0 1 266.600012 337.100006 A 0.6 1.3 0 0 1 267.200012 335.800006 A 0.6 1.3 0 0 1 267.800012 337.100006 Z" transform="matrix(0.814300000667572, -0.5803999900817871, 0.5803999900817871, 0.814300000667572, -146.03050231933594, 217.6656951904297)" class="st23" style="fill: rgb(255, 255, 255);"/><path class="st27" d="M267.7,332.1c1,0.2,2.1,0.7,3,1.5c2.3,2,3,4.9,1.5,6.6c-0.4,0.5-1,0.8-1.7,1c1.5,0.3,2.9,0,3.8-1&#10;&#9;&#9;&#9;&#9;&#9;&#9;c1.4-1.7,0.8-4.7-1.5-6.6C271.2,332.2,269.3,331.7,267.7,332.1z" style="fill: rgb(0, 129, 59);" transform="matrix(1, 0, 0, 1, 0, 0)"/><path d="M 263 319.5 L 263.79998779296875 324.8999938964844 L 269.6000061035156 328 L 274.29998779296875 324.70001220703125 L 272.70001220703125 318.5 L 267.79998779296875 316.79998779296875 Z" class="st3" style="fill: rgb(39, 170, 225);" transform="matrix(1, 0, 0, 1, 0, 0)"/><path d="M 265.6000061035156 320.3999938964844 L 266.29998779296875 323.79998779296875 L 269.6000061035156 325.3999938964844 L 272.29998779296875 323.70001220703125 L 271 320.3999938964844 L 268.20001220703125 319.1000061035156 Z" class="st28" style="fill: rgb(215, 232, 247);" transform="matrix(1, 0, 0, 1, 0, 0)"/><path d="M 263 319.5 L 265.6000061035156 320.3999938964844 L 268.20001220703125 319.1000061035156 L 267.79998779296875 316.79998779296875 Z" class="st29" style="fill: rgb(99, 183, 230);" transform="matrix(1, 0, 0, 1, 0, 0)"/><path d="M 266.29998779296875 323.79998779296875 L 263.79998779296875 324.8999938964844 L 269.6000061035156 328 L 269.6000061035156 325.3999938964844 Z" class="st30" style="fill: rgb(140, 198, 236);" transform="matrix(1, 0, 0, 1, 0, 0)"/><path d="M 272.29998779296875 323.70001220703125 L 274.29998779296875 324.70001220703125 L 269.6000061035156 328 L 269.6000061035156 325.3999938964844 Z" class="st31" style="fill: rgb(178, 214, 241);" transform="matrix(1, 0, 0, 1, 0, 0)"/><path d="M 272.70001220703125 318.5 L 271 320.3999938964844 L 268.20001220703125 319.1000061035156 L 267.79998779296875 316.79998779296875 Z" class="st31" style="fill: rgb(178, 214, 241);" transform="matrix(1, 0, 0, 1, 0, 0)"/><path d="M 263 319.5 L 265.6000061035156 320.3999938964844 L 266.29998779296875 323.79998779296875 L 263.79998779296875 324.8999938964844 Z" class="st31" style="fill: rgb(178, 214, 241);" transform="matrix(1, 0, 0, 1, 0, 0)"/><path d="M 156 326.20001220703125 L 162.3000030517578 326.70001220703125 L 167.39999389648438 320.79998779296875 L 164.6999969482422 314.5 L 157.1999969482422 314.8999938964844 L 154 320.1000061035156 Z" class="st3" style="fill: rgb(39, 170, 225);" transform="matrix(1, 0, 0, 1, 0, 0)"/><path d="M 157.60000610351562 323.5 L 161.6999969482422 323.6000061035156 L 164.3000030517578 320.20001220703125 L 163.10000610351562 316.6000061035156 L 159 317.29998779296875 L 156.89999389648438 320.1000061035156 Z" class="st28" style="fill: rgb(215, 232, 247);" transform="matrix(1, 0, 0, 1, 0, 0)"/><path d="M 156 326.20001220703125 L 157.60000610351562 323.5 L 156.89999389648438 320.1000061035156 L 154 320.1000061035156 Z" class="st29" style="fill: rgb(99, 183, 230);" transform="matrix(1, 0, 0, 1, 0, 0)"/><path d="M 161.6999969482422 323.6000061035156 L 162.3000030517578 326.70001220703125 L 167.39999389648438 320.79998779296875 L 164.3000030517578 320.20001220703125 Z" class="st30" style="fill: rgb(140, 198, 236);" transform="matrix(1, 0, 0, 1, 0, 0)"/><path d="M 163.10000610351562 316.6000061035156 L 164.6999969482422 314.5 L 167.39999389648438 320.79998779296875 L 164.3000030517578 320.20001220703125 Z" class="st31" style="fill: rgb(178, 214, 241);" transform="matrix(1, 0, 0, 1, 0, 0)"/><path d="M 157.1999969482422 314.8999938964844 L 159 317.29998779296875 L 156.89999389648438 320.1000061035156 L 154 320.1000061035156 Z" class="st31" style="fill: rgb(178, 214, 241);" transform="matrix(1, 0, 0, 1, 0, 0)"/><path d="M 156 326.20001220703125 L 157.60000610351562 323.5 L 161.6999969482422 323.6000061035156 L 162.3000030517578 326.70001220703125 Z" class="st31" style="fill: rgb(178, 214, 241);" transform="matrix(1, 0, 0, 1, 0, 0)"/><path d="M 212 312.79998779296875 L 224 323.5 L 240.6999969482422 326.20001220703125 L 240.6999969482422 335.70001220703125 L 247.8000030517578 341.3999938964844 L 251.6999969482422 350.79998779296875 L 251.6999969482422 338.5 L 244 334 L 242.60000610351562 323.20001220703125 L 225.6999969482422 321.79998779296875 Z" class="st32" style="fill: rgb(217, 177, 46);" transform="matrix(1, 0, 0, 1, 0, 0)"/><path d="M 190.5 309.79998779296875 L 176.89999389648438 316.79998779296875 L 172.1999969482422 325.79998779296875 L 163.10000610351562 333.20001220703125 L 164.3000030517578 341.3999938964844 L 148.5 345.79998779296875 L 144 350.1000061035156 L 145.6999969482422 341.3999938964844 L 159.10000610351562 338.5 L 159.10000610351562 329.8999938964844 L 170.6999969482422 323.79998779296875 L 174.10000610351562 312.79998779296875 Z" class="st32" style="fill: rgb(217, 177, 46);" transform="matrix(1, 0, 0, 1, 0, 0)"/><path d="M 199.6999969482422 311.5 L 193 330.3999938964844 L 200.5 341.3999938964844 L 190.5 349.6000061035156 L 185.1999969482422 362.79998779296875 L 184 348.6000061035156 L 194.5 341.3999938964844 L 189.1999969482422 328 Z" class="st32" style="fill: rgb(217, 177, 46);" transform="matrix(1, 0, 0, 1, 0, 0)"/><path d="M 263.6000061035156 312.3999938964844 L 262.3999938964844 319.3999938964844 L 257.20001220703125 320.3999938964844 L 262.3999938964844 321.1000061035156 L 263 329.1000061035156 L 264.1000061035156 321.29998779296875 L 268.20001220703125 320.70001220703125 L 263.79998779296875 319.6000061035156 Z" class="st23" style="fill: rgb(255, 255, 255);" transform="matrix(1, 0, 0, 1, 0, 0)"/><path d="M 181.1999969482422 339.70001220703125 L 180 346.70001220703125 L 174.8000030517578 347.79998779296875 L 180 348.5 L 180.60000610351562 356.3999938964844 L 181.60000610351562 348.6000061035156 L 185.8000030517578 348.1000061035156 L 181.39999389648438 346.8999938964844 Z" class="st23" style="fill: rgb(255, 255, 255);" transform="matrix(1, 0, 0, 1, 0, 0)"/><path class="st32" d="M186.7,301c-30,1.5-33,7-54.5,15.5s-28.4,27.6-28.4,27.6l16.9,5.6c5.5-24.6,29.7-32,29.7-32&#10;&#9;&#9;&#9;&#9;&#9;c14.4-14.3,32.5-16.4,38.2-16.7C188,300.9,187.4,301,186.7,301z" style="fill: rgb(217, 177, 46);" transform="matrix(1, 0, 0, 1, 0, 0)"/><path d="M 128.5 311.79998779296875 L 127.30000305175781 318.79998779296875 L 122.0999984741211 319.79998779296875 L 127.30000305175781 320.6000061035156 L 127.9000015258789 328.5 L 129 320.70001220703125 L 133.10000610351562 320.1000061035156 L 128.6999969482422 319 Z" class="st23" style="fill: rgb(255, 255, 255);" transform="matrix(1, 0, 0, 1, 0, 0)"/><path class="st18" d="M245.5,370.4l22.3-4.9c0,0,7,10.5,0.5,26.3l-12.1,2.3h-5L245.5,370.4z" style="fill: rgb(178, 182, 186);" transform="matrix(1, 0, 0, 1, 0, 0)"/><path class="st19" d="M252.6,368.8c0,0,7.8,11.7,3.5,25.2h-5l-5.7-23.6L252.6,368.8z" style="fill: rgb(140, 149, 157);" transform="matrix(1, 0, 0, 1, 0, 0)"/><path class="st33" d="M265.2,378.8c0,0,0.9-4-1.3-3.3c-2,0.6-2.7,2.3-0.9,3.8l-0.5,3.5l3.6-1.3L265.2,378.8z" style="fill: rgb(65, 64, 66);" transform="matrix(1, 0, 0, 1, 0, 0)"/><g transform="matrix(1, 0, 0, 1, 0, 0)">
			<path class="st14" d="M339.3,491.7c0,0-7.3,3.8-16.8-22.1c0,0-13.6,3.6-17.5,1.3c-9.2-5.4,12.8-18.3,12.8-18.3s-8-14.8-4.1-17.6&#10;&#9;&#9;&#9;&#9;c5.5-3.9,22.5,18.8,22.5,18.8L339.3,491.7z" style="fill: rgb(193, 171, 89);"/>
			<path class="st14" d="M340.6,470.7c0,0,19.9,0.8,28.7-6.5l-27.1-0.2L340.6,470.7z" style="fill: rgb(193, 171, 89);"/>
		</g><path class="st22" d="M322.5,454c0,0-12.9-20.1-8.4-21.6s21.8,13.2,21.8,13.2s16.9-7.4,22.4-5.8c5.5,1.6-5.6,13.5-5.6,13.5&#10;&#9;&#9;&#9;&#9;s21.4,5.1,20.3,9.7c-1.1,4.6-27.8,5.4-27.8,5.4s0.8,22.5-6.1,23.5s-10.2-22.6-10.2-22.6s-25.9,6.8-26.6-0.7&#10;&#9;&#9;&#9;&#9;C301.6,462.4,322.5,454,322.5,454z" style="fill: rgb(237, 28, 36);" transform="matrix(1, 0, 0, 1, 0, 0)"/><path class="st24" d="M338.1,483.6c-4.4,0.6-7-18.2-7-18.2c-13.9,4.9-23.6,4.9-28.4,4.4c3.7,5.3,26.1-0.6,26.1-0.6&#10;&#9;&#9;&#9;&#9;&#9;s3.4,23.6,10.2,22.6c6.9-1,6.1-23.5,6.1-23.5S342.5,483,338.1,483.6z" style="fill: rgb(206, 24, 30);" transform="matrix(1, 0, 0, 1, 0, 0)"/><path class="st24" d="M358.7,440c-0.5,3-2.7,8-10.7,12.7l4.6,0.6C352.6,453.3,363,442.1,358.7,440z" style="fill: rgb(206, 24, 30);" transform="matrix(1, 0, 0, 1, 0, 0)"/><path class="st24" d="M315.1,440.6c2.7,6.1,7.4,13.4,7.4,13.4l2.8-1.1C320.4,448.3,317.2,443.9,315.1,440.6z" style="fill: rgb(206, 24, 30);" transform="matrix(1, 0, 0, 1, 0, 0)"/><g transform="matrix(1, 0, 0, 1, 0, 0)">
					<path class="st34" d="M319.9,436.5c-0.5-0.3-1,0-1.1,0.5c-0.1,0.6,0,1.4,0.9,1.6C321.1,439.1,321.3,437.3,319.9,436.5z" style="fill: rgb(255, 244, 80);"/>
					<path class="st34" d="M321.8,441.5c-0.2,0.6,0.3,1.2,0.9,1.2c0.7,0,1.6-0.4,1.6-1.5C324.4,439.3,322.3,439.6,321.8,441.5z" style="fill: rgb(255, 244, 80);"/>
					<path class="st34" d="M328.4,447.2c0.9-0.1,1.4-1.1,1-1.9c-0.5-0.9-1.4-1.9-3-1.2C324,445,325.6,447.6,328.4,447.2z" style="fill: rgb(255, 244, 80);"/>
				</g><path class="st34" d="M337.9,482c0.2,0.5,0.8,0.7,1.2,0.3c0.5-0.4,0.9-1,0.3-1.8C338.6,479.3,337.3,480.5,337.9,482z" style="fill: rgb(255, 244, 80);" transform="matrix(1, 0, 0, 1, 0, 0)"/><path class="st34" d="M339.6,477c0.5-0.4,0.5-1.1,0-1.5c-0.6-0.4-1.4-0.7-2.2,0.1C336.2,476.9,338,478.1,339.6,477z" style="fill: rgb(255, 244, 80);" transform="matrix(1, 0, 0, 1, 0, 0)"/><path class="st34" d="M338.2,468.4c-0.8-0.5-1.8-0.1-2,0.8c-0.2,1-0.1,2.3,1.5,2.9C340.1,472.9,340.6,469.8,338.2,468.4z" style="fill: rgb(255, 244, 80);" transform="matrix(1, 0, 0, 1, 0, 0)"/><path class="st34" d="M364.6,461.8c0.5,0,0.9-0.6,0.7-1.1c-0.2-0.6-0.7-1.1-1.7-0.9C362.1,460.3,362.9,461.9,364.6,461.8z" style="fill: rgb(255, 244, 80);" transform="matrix(1, 0, 0, 1, 0, 0)"/><path class="st34" d="M360.2,458.6c-0.2-0.6-0.9-0.8-1.4-0.5c-0.6,0.4-1.1,1.2-0.5,2.2C359.2,461.9,360.8,460.5,360.2,458.6z" style="fill: rgb(255, 244, 80);" transform="matrix(1, 0, 0, 1, 0, 0)"/><path class="st34" d="M351.5,457.5c-0.7,0.6-0.6,1.7,0.2,2.2c0.9,0.5,2.2,0.8,3.2-0.6C356.4,457,353.6,455.6,351.5,457.5z" style="fill: rgb(255, 244, 80);" transform="matrix(1, 0, 0, 1, 0, 0)"/><path class="st34" d="M310.2,463.2c-0.4,0.4-0.3,1,0.1,1.2c0.5,0.3,1.3,0.5,1.8-0.4C313,462.8,311.4,462.1,310.2,463.2z" style="fill: rgb(255, 244, 80);" transform="matrix(1, 0, 0, 1, 0, 0)"/><path class="st34" d="M315.5,462.9c0.5,0.3,1.2,0.1,1.4-0.5c0.2-0.7,0.2-1.6-0.9-2C314.3,459.7,313.9,461.8,315.5,462.9z" style="fill: rgb(255, 244, 80);" transform="matrix(1, 0, 0, 1, 0, 0)"/><path class="st34" d="M323,458.4c0.1-0.9-0.6-1.7-1.5-1.5c-1,0.2-2.2,0.7-2.1,2.4C319.5,461.9,322.6,461.2,323,458.4z" style="fill: rgb(255, 244, 80);" transform="matrix(1, 0, 0, 1, 0, 0)"/><path class="st34" d="M356.3,440.6c0.5,0,0.9,0.5,0.8,1c-0.2,0.6-0.6,1.2-1.6,1.1C354.1,442.4,354.7,440.7,356.3,440.6z" style="fill: rgb(255, 244, 80);" transform="matrix(1, 0, 0, 1, 0, 0)"/><path class="st34" d="M352.4,444.2c-0.1,0.6-0.8,1-1.4,0.6c-0.6-0.4-1.3-1-0.8-2.1C351,441.1,352.8,442.3,352.4,444.2z" style="fill: rgb(255, 244, 80);" transform="matrix(1, 0, 0, 1, 0, 0)"/><path class="st34" d="M343.9,446.4c-0.7-0.5-0.8-1.6,0-2.2c0.9-0.6,2.1-1,3.2,0.2C348.8,446.3,346.2,448,343.9,446.4z" style="fill: rgb(255, 244, 80);" transform="matrix(1, 0, 0, 1, 0, 0)"/><path class="st14" d="M683,507.9l5.3-8.5l24.6-3.6c0,0-6.1-14.7-27.3-13.8C685.5,482,678.2,495.9,683,507.9z" style="fill: rgb(193, 171, 89);" transform="matrix(1, 0, 0, 1, 0, 0)"/><path class="st35" d="M669.6,494.2c0,0-6.8,3.6-8.4,6.2s16.9,9.8,21.8,7.6l2.3-8l21.4-3.4c0,0,1.9-10.7-13.6-19.1&#10;&#9;&#9;&#9;&#9;c-15.5-8.4-29.5,6.1-29.5,6.1L669.6,494.2z" style="fill: rgb(179, 122, 180);" transform="matrix(1, 0, 0, 1, 0, 0)"/><path class="st36" d="M704.6,487.8l-18.3,7.2l19.2-5.5C705.3,489,705,488.4,704.6,487.8z" style="fill: rgb(161, 84, 161);" transform="matrix(1, 0, 0, 1, 0, 0)"/><path class="st36" d="M685.8,492.5l14-10.5c-0.6-0.5-1.2-1-1.8-1.5L685.8,492.5z" style="fill: rgb(161, 84, 161);" transform="matrix(1, 0, 0, 1, 0, 0)"/><path class="st36" d="M688.4,475.5l-7,16.1l9.2-15.4C689.8,475.9,689.1,475.7,688.4,475.5z" style="fill: rgb(161, 84, 161);" transform="matrix(1, 0, 0, 1, 0, 0)"/><path class="st36" d="M678.5,491.6l1-16.6c-0.8,0.1-1.5,0.3-2.3,0.5L678.5,491.6z" style="fill: rgb(161, 84, 161);" transform="matrix(1, 0, 0, 1, 0, 0)"/><path class="st36" d="M668.4,479.6l5.2,11.5l-3.5-12.5C669.5,478.9,668.9,479.3,668.4,479.6z" style="fill: rgb(161, 84, 161);" transform="matrix(1, 0, 0, 1, 0, 0)"/><path class="st36" d="M681.8,497.7l-1.3,6.9c0,0-8.8,1.5-19.4-4.2c-1.6,2.6,16.9,9.8,21.8,7.6l2.3-8l21.4-3.4L681.8,497.7z" style="fill: rgb(161, 84, 161);" transform="matrix(1, 0, 0, 1, 0, 0)"/><path class="st14" d="M661.3,546.9l5.8-10.2l28.8-5.3c0,0-7.7-17.1-32.8-15.2C663.2,516.3,655.1,532.9,661.3,546.9z" style="fill: rgb(193, 171, 89);" transform="matrix(1, 0, 0, 1, 0, 0)"/><path class="st35" d="M644.9,531.3c0,0-7.9,4.5-9.6,7.6c-1.8,3.1,20.3,10.9,26,8l2.4-9.5l25.1-4.9c0,0,1.8-12.7-16.8-22&#10;&#9;&#9;&#9;&#9;c-18.7-9.3-34.5,8.3-34.5,8.3L644.9,531.3z" style="fill: rgb(179, 122, 180);" transform="matrix(1, 0, 0, 1, 0, 0)"/><path class="st36" d="M685.9,522.4l-21.3,9.2l22.4-7.3C686.7,523.7,686.3,523,685.9,522.4z" style="fill: rgb(161, 84, 161);" transform="matrix(1, 0, 0, 1, 0, 0)"/><path class="st36" d="M663.9,528.6l16.1-12.9c-0.7-0.6-1.4-1.1-2.2-1.7L663.9,528.6z" style="fill: rgb(161, 84, 161);" transform="matrix(1, 0, 0, 1, 0, 0)"/><path class="st36" d="M666.2,508.5l-7.6,19.3l10.2-18.6C667.9,508.9,667.1,508.7,666.2,508.5z" style="fill: rgb(161, 84, 161);" transform="matrix(1, 0, 0, 1, 0, 0)"/><path class="st36" d="M655.3,527.9l0.5-19.6c-0.9,0.2-1.8,0.4-2.6,0.7L655.3,527.9z" style="fill: rgb(161, 84, 161);" transform="matrix(1, 0, 0, 1, 0, 0)"/><path class="st36" d="M642.8,514.2l6.6,13.3l-4.7-14.6C644.1,513.3,643.5,513.7,642.8,514.2z" style="fill: rgb(161, 84, 161);" transform="matrix(1, 0, 0, 1, 0, 0)"/><path class="st36" d="M659.4,534.9l-1.2,8.1c0,0-10.3,2.1-23-4.1c-1.8,3.1,20.3,10.9,26,8l2.4-9.5l25.1-4.9L659.4,534.9z" style="fill: rgb(161, 84, 161);" transform="matrix(1, 0, 0, 1, 0, 0)"/><path class="st14" d="M793.6,506c0,0,21-6.2,28-17c7-10.8-9.3-10.3-9.3-10.3s-2.3-9.9-21.4-5.7C771.8,477.2,793.6,506,793.6,506z" style="fill: rgb(193, 171, 89);" transform="matrix(1, 0, 0, 1, 0, 0)"/><path class="st37" d="M811.5,492.1c0,0-9-25.4-19-27.9s-7-11-26-11s-17.5,9.9-30,19.5s-29.5,16.1-21,31.1c0,0,24.5,3.8,44,1.4&#10;&#9;&#9;&#9;&#9;c0,0,12,15.4,26,6.5S816.5,503.7,811.5,492.1z" style="fill: rgb(128, 130, 133);" transform="matrix(1, 0, 0, 1, 0, 0)"/><path class="st38" d="M759.5,505.1c0,0,0.9-14.6,9.5-17.6c0,0,0.3-11.1,8-15.6c0,0-8,1.2-13,14c0,0-10.3,1.3-16,19.9&#10;&#9;&#9;&#9;&#9;C748,505.9,756.6,506.4,759.5,505.1z" style="fill: rgb(109, 110, 113);" transform="matrix(1, 0, 0, 1, 0, 0)"/><path class="st38" d="M797.7,467.5c3,6.1,7.2,16.2,8.1,26.4c0,0-13.8,5.7-17.3,9.7c-3.5,4-8.3,10.7-11.6,10.7&#10;&#9;&#9;&#9;&#9;c2.7-0.1,5.5-0.9,8.5-2.7c14-8.9,31-7.8,26-19.5C811.5,492.1,805.4,475,797.7,467.5z" style="fill: rgb(109, 110, 113);" transform="matrix(1, 0, 0, 1, 0, 0)"/><path class="st39" d="M735.1,477.6c0,0-11.8,7.4-14.8,11.3c-3,4-4,7.2-3,10.2l6,2C723.3,501.2,721.6,491.1,735.1,477.6z" style="fill: rgb(147, 149, 152);" transform="matrix(1, 0, 0, 1, 0, 0)"/><path class="st14" d="M68.9,496.5c0,0-32.9-9.7-43.8-26.7s14.5-16.1,14.5-16.1s3.6-15.6,33.5-9C103,451.4,68.9,496.5,68.9,496.5z" style="fill: rgb(193, 171, 89);" transform="matrix(1, 0, 0, 1, 0, 0)"/><path class="st37" d="M40.8,474.8c0,0,14.1-39.8,29.8-43.7s11-17.2,40.7-17.2s27.4,15.5,47,30.5s46.2,25.2,32.9,48.7&#10;&#9;&#9;&#9;&#9;c0,0-38.4,5.9-68.9,2.2c0,0-18.8,24.1-40.7,10.1C59.6,491.4,32.9,493,40.8,474.8z" style="fill: rgb(128, 130, 133);" transform="matrix(1, 0, 0, 1, 0, 0)"/><path class="st38" d="M122.3,495.2c0,0-1.3-22.9-14.9-27.6c0,0-0.5-17.4-12.5-24.4c0,0,12.5,1.9,20.4,22c0,0,16.2,2,25.1,31.2&#10;&#9;&#9;&#9;&#9;C140.3,496.4,126.8,497.2,122.3,495.2z" style="fill: rgb(109, 110, 113);" transform="matrix(1, 0, 0, 1, 0, 0)"/><path class="st38" d="M62.4,436.3c-4.7,9.6-11.2,25.4-12.7,41.4c0,0,21.5,8.9,27,15.2c5.5,6.3,13,16.7,18.1,16.8&#10;&#9;&#9;&#9;&#9;c-4.2-0.1-8.7-1.4-13.3-4.3c-21.9-13.9-48.6-12.3-40.7-30.5C40.8,474.8,50.3,448.1,62.4,436.3z" style="fill: rgb(109, 110, 113);" transform="matrix(1, 0, 0, 1, 0, 0)"/><path class="st39" d="M160.5,452.1c0,0,18.4,11.6,23.1,17.8c4.7,6.2,6.3,11.3,4.7,16l-9.4,3.1C178.9,489,181.7,473.2,160.5,452.1&#10;&#9;&#9;&#9;&#9;z" style="fill: rgb(147, 149, 152);" transform="matrix(1, 0, 0, 1, 0, 0)"/><path class="st14" d="M722,546.6l5.4-10.4l28.6-6.5c0,0-8.5-16.7-33.4-13.8C722.6,515.9,715.2,532.9,722,546.6z" style="fill: rgb(193, 171, 89);" transform="matrix(1, 0, 0, 1, 0, 0)"/><path class="st35" d="M705,531.7c0,0-7.6,4.9-9.3,8c-1.6,3.1,20.8,10,26.3,6.9l2-9.6l24.8-6c0,0,1.3-12.8-17.8-21.2&#10;&#9;&#9;&#9;&#9;c-19-8.4-34.1,9.8-34.1,9.8L705,531.7z" style="fill: rgb(179, 122, 180);" transform="matrix(1, 0, 0, 1, 0, 0)"/><path class="st36" d="M745.6,521l-20.9,10.1l22-8.2C746.4,522.3,746.1,521.7,745.6,521z" style="fill: rgb(161, 84, 161);" transform="matrix(1, 0, 0, 1, 0, 0)"/><path class="st36" d="M723.9,528.2l15.5-13.6c-0.7-0.5-1.5-1.1-2.3-1.6L723.9,528.2z" style="fill: rgb(161, 84, 161);" transform="matrix(1, 0, 0, 1, 0, 0)"/><path class="st36" d="M725.4,508l-6.8,19.6l9.4-19C727.1,508.4,726.2,508.2,725.4,508z" style="fill: rgb(161, 84, 161);" transform="matrix(1, 0, 0, 1, 0, 0)"/><path class="st36" d="M715.3,527.9l-0.4-19.6c-0.9,0.2-1.8,0.5-2.6,0.8L715.3,527.9z" style="fill: rgb(161, 84, 161);" transform="matrix(1, 0, 0, 1, 0, 0)"/><path class="st36" d="M702.2,514.7l7.2,13l-5.3-14.4C703.4,513.8,702.8,514.3,702.2,514.7z" style="fill: rgb(161, 84, 161);" transform="matrix(1, 0, 0, 1, 0, 0)"/><path class="st36" d="M719.7,534.7l-0.8,8.2c0,0-10.2,2.5-23.1-3.1c-1.6,3.1,20.8,10,26.3,6.9l2-9.6l24.8-6L719.7,534.7z" style="fill: rgb(161, 84, 161);" transform="matrix(1, 0, 0, 1, 0, 0)"/><g transform="matrix(1, 0, 0, 1, 0, 0)">
			<path class="st14" d="M193.5,573c0,0-10.3,4.1-19.7-32.1c0,0-18.8,3-23.8-0.7c-11.7-8.6,19.8-22.9,19.8-22.9s-8.8-21.1-3.1-24.4&#10;&#9;&#9;&#9;&#9;c7.9-4.5,27.8,28.5,27.8,28.5L193.5,573z" style="fill: rgb(193, 171, 89);"/>
			<path class="st14" d="M198,544.7c0,0,26.8,3.9,39.6-4.8l-36.5-4.1L198,544.7z" style="fill: rgb(193, 171, 89);"/>
		</g><path class="st22" d="M175.9,519.7c0,0-14.6-28.8-8.4-30.3c6.2-1.5,27.5,20.9,27.5,20.9s23.8-7.7,31-4.8&#10;&#9;&#9;&#9;&#9;c7.2,2.9-9.5,17.4-9.5,17.4s28.2,9.8,26.1,15.8c-2.1,6-38.3,3.4-38.3,3.4s-2,30.5-11.4,30.9c-9.4,0.4-10.7-31.9-10.7-31.9&#10;&#9;&#9;&#9;&#9;s-35.9,5.6-35.8-4.7C146.5,528.1,175.9,519.7,175.9,519.7z" style="fill: rgb(237, 28, 36);" transform="matrix(1, 0, 0, 1, 0, 0)"/><path class="st24" d="M192.9,561.8c-6,0.2-7-25.5-7-25.5c-19.4,4.7-32.5,3.4-39,2.1c4.3,7.6,35.3,2.7,35.3,2.7&#10;&#9;&#9;&#9;&#9;&#9;s1.3,32.3,10.7,31.9c9.4-0.4,11.4-30.9,11.4-30.9S199,561.6,192.9,561.8z" style="fill: rgb(206, 24, 30);" transform="matrix(1, 0, 0, 1, 0, 0)"/><path class="st24" d="M226.7,505.8c-1.1,4-4.8,10.4-16.2,15.6l6.2,1.5C216.6,522.9,232.2,509.3,226.7,505.8z" style="fill: rgb(206, 24, 30);" transform="matrix(1, 0, 0, 1, 0, 0)"/><path class="st24" d="M167.8,500.6c2.9,8.7,8.2,19.1,8.2,19.1l3.9-1.1C173.9,511.7,170.1,505.4,167.8,500.6z" style="fill: rgb(206, 24, 30);" transform="matrix(1, 0, 0, 1, 0, 0)"/><g transform="matrix(1, 0, 0, 1, 0, 0)">
					<path class="st34" d="M174.8,495.7c-0.6-0.4-1.4-0.1-1.6,0.5c-0.2,0.8-0.2,1.8,1,2.3C176.1,499.4,176.6,497,174.8,495.7z" style="fill: rgb(255, 244, 80);"/>
					<path class="st34" d="M176.7,502.7c-0.3,0.8,0.2,1.7,1.1,1.7c1,0,2.2-0.3,2.4-1.8C180.6,500.2,177.7,500.2,176.7,502.7z" style="fill: rgb(255, 244, 80);"/>
					<path class="st34" d="M184.9,511.3c1.2-0.1,2.1-1.3,1.6-2.5c-0.5-1.3-1.6-2.7-3.9-2.1C179.2,507.7,181,511.5,184.9,511.3z" style="fill: rgb(255, 244, 80);"/>
				</g><path class="st34" d="M192.8,559.7c0.2,0.7,1,1,1.6,0.6c0.7-0.5,1.3-1.3,0.7-2.4C194.2,556.1,192.2,557.6,192.8,559.7z" style="fill: rgb(255, 244, 80);" transform="matrix(1, 0, 0, 1, 0, 0)"/><path class="st34" d="M195.8,553.1c0.7-0.4,0.9-1.4,0.3-2c-0.7-0.7-1.8-1.2-3-0.1C191.2,552.6,193.5,554.4,195.8,553.1z" style="fill: rgb(255, 244, 80);" transform="matrix(1, 0, 0, 1, 0, 0)"/><path class="st34" d="M195.1,541.3c-1-0.7-2.4-0.3-2.8,0.8c-0.4,1.4-0.5,3.1,1.6,4.1C197.1,547.6,198.2,543.6,195.1,541.3z" style="fill: rgb(255, 244, 80);" transform="matrix(1, 0, 0, 1, 0, 0)"/><path class="st34" d="M231.7,536c0.7,0,1.3-0.7,1-1.3c-0.2-0.8-0.8-1.6-2.1-1.4C228.6,533.7,229.4,536,231.7,536z" style="fill: rgb(255, 244, 80);" transform="matrix(1, 0, 0, 1, 0, 0)"/><path class="st34" d="M226.2,531.2c-0.2-0.8-1.1-1.3-1.9-0.8c-0.8,0.5-1.7,1.4-1,2.9C224.4,535.5,226.8,533.8,226.2,531.2z" style="fill: rgb(255, 244, 80);" transform="matrix(1, 0, 0, 1, 0, 0)"/><path class="st34" d="M214.6,528.5c-1,0.7-1,2.2,0,2.9c1.2,0.8,2.9,1.4,4.4-0.4C221.3,528.4,217.7,526.3,214.6,528.5z" style="fill: rgb(255, 244, 80);" transform="matrix(1, 0, 0, 1, 0, 0)"/><path class="st34" d="M158.1,530.4c-0.6,0.4-0.6,1.3,0,1.7c0.7,0.5,1.7,0.8,2.5-0.2C161.9,530.4,159.8,529.1,158.1,530.4z" style="fill: rgb(255, 244, 80);" transform="matrix(1, 0, 0, 1, 0, 0)"/><path class="st34" d="M165.3,530.8c0.7,0.5,1.7,0.3,2-0.5c0.3-0.9,0.4-2.2-1-2.9C164.1,526.4,163.2,529.1,165.3,530.8z" style="fill: rgb(255, 244, 80);" transform="matrix(1, 0, 0, 1, 0, 0)"/><path class="st34" d="M176,525.8c0.3-1.2-0.6-2.4-1.8-2.3c-1.4,0.1-3.1,0.7-3.2,3C170.9,530,175,529.5,176,525.8z" style="fill: rgb(255, 244, 80);" transform="matrix(1, 0, 0, 1, 0, 0)"/><path class="st34" d="M223.4,506.4c0.7,0,1.2,0.8,0.9,1.4c-0.3,0.8-1,1.6-2.2,1.2C220.2,508.4,221.2,506.2,223.4,506.4z" style="fill: rgb(255, 244, 80);" transform="matrix(1, 0, 0, 1, 0, 0)"/><path class="st34" d="M217.6,510.7c-0.2,0.8-1.2,1.2-1.9,0.7c-0.8-0.6-1.6-1.6-0.8-3C216.1,506.3,218.4,508.1,217.6,510.7z" style="fill: rgb(255, 244, 80);" transform="matrix(1, 0, 0, 1, 0, 0)"/><path class="st34" d="M205.9,512.4c-0.9-0.8-0.8-2.3,0.3-2.9c1.2-0.7,3-1.1,4.3,0.8C212.5,513,208.8,514.9,205.9,512.4z" style="fill: rgb(255, 244, 80);" transform="matrix(1, 0, 0, 1, 0, 0)"/>
</svg>